<?xml version="1.0" encoding="UTF-8" standalone="no"?>
<!-- Created with Inkscape (http://www.inkscape.org/) -->

<svg
   width="480"
   height="800"
   viewBox="0 0 127 211.66667"
   version="1.1"
   id="svg1"
   inkscape:version="1.3 (0e150ed, 2023-07-21)"
   sodipodi:docname="Doorbell.svg"
   xml:space="preserve"
   inkscape:export-filename="Doorbell.png"
   inkscape:export-xdpi="96"
   inkscape:export-ydpi="96"
   xmlns:inkscape="http://www.inkscape.org/namespaces/inkscape"
   xmlns:sodipodi="http://sodipodi.sourceforge.net/DTD/sodipodi-0.dtd"
   xmlns="http://www.w3.org/2000/svg"
   xmlns:svg="http://www.w3.org/2000/svg"><sodipodi:namedview
     id="namedview1"
     pagecolor="#ffffff"
     bordercolor="#666666"
     borderopacity="1.0"
     inkscape:showpageshadow="2"
     inkscape:pageopacity="0.0"
     inkscape:pagecheckerboard="0"
     inkscape:deskcolor="#d1d1d1"
     inkscape:document-units="mm"
     inkscape:zoom="1.37875"
     inkscape:cx="240.07253"
     inkscape:cy="400"
     inkscape:window-width="2048"
     inkscape:window-height="1254"
     inkscape:window-x="5292"
     inkscape:window-y="25"
     inkscape:window-maximized="0"
     inkscape:current-layer="layer1" /><defs
     id="defs1"><rect
       x="64.116576"
       y="542.0765"
       width="271.76685"
       height="163.93443"
       id="rect4" /><rect
       x="0"
       y="0"
       width="480"
       height="153.00546"
       id="rect1" /><rect
       x="0"
       y="0"
       width="480"
       height="153.00546"
       id="rect1-6" /><rect
       x="0"
       y="0"
       width="480"
       height="153.00546"
       id="rect1-3" /></defs><g
     inkscape:label="Layer 1"
     inkscape:groupmode="layer"
     id="layer1"
     transform="translate(0,-85.333325)"><text
       xml:space="preserve"
       transform="matrix(0.30246346,0,0,0.30246346,-0.32503449,84.416668)"
       id="text1"
       style="font-style:normal;font-variant:normal;font-weight:normal;font-stretch:normal;font-size:86.6667px;line-height:1.25;font-family:UnifrakturCook;-inkscape-font-specification:'UnifrakturCook, Normal';font-variant-ligatures:normal;font-variant-caps:normal;font-variant-numeric:normal;font-variant-east-asian:normal;white-space:pre;shape-inside:url(#rect1);display:inline;fill:#000000;fill-opacity:1;stroke:none"><tspan
         x="0"
         y="79.067197"
         id="tspan3">The Belmont</tspan></text><text
       xml:space="preserve"
       transform="matrix(0.31376571,0,0,0.31376571,-0.24022611,205.70813)"
       id="text1-5"
       style="font-style:normal;font-variant:normal;font-weight:normal;font-stretch:normal;font-size:74.6667px;line-height:1.25;font-family:UnifrakturCook;-inkscape-font-specification:'UnifrakturCook, Normal';font-variant-ligatures:normal;font-variant-caps:normal;font-variant-numeric:normal;font-variant-east-asian:normal;white-space:pre;shape-inside:url(#rect1-3);display:inline;fill:#000000;fill-opacity:1;stroke:none"><tspan
         x="0"
         y="68.119435"
         id="tspan4">Monmouth Rd</tspan></text><text
       xml:space="preserve"
       transform="matrix(0.92973445,0,0,0.92973445,-0.903314,87.959072)"
       id="text1-2"
       style="font-style:normal;font-variant:normal;font-weight:normal;font-stretch:normal;font-size:133.333px;line-height:1.25;font-family:'Apple Chancery';-inkscape-font-specification:'Apple Chancery, Normal';font-variant-ligatures:normal;font-variant-caps:normal;font-variant-numeric:normal;font-variant-east-asian:normal;white-space:pre;shape-inside:url(#rect1-6);display:inline;fill:#000000;fill-opacity:1;stroke:none"><tspan
         x="0"
         y="122.39552"
         id="tspan6"><tspan
           style="font-family:UnifrakturCook;-inkscape-font-specification:'UnifrakturCook, Normal'"
           id="tspan5">22</tspan></tspan></text><g
       style="fill:#000000"
       id="g4"
       transform="matrix(0.16412933,0,0,0.16412933,93.697736,259.61051)"><path
         d="m 200.551,194.476 c -8.234,-7.774 -27.387,-30.341 -27.387,-71.894 V 100.01 c 0,-24.913 -15.461,-46.269 -37.285,-55.018 3.691,-4.728 5.898,-10.667 5.898,-17.117 C 141.777,12.505 129.272,0 113.902,0 98.532,0 86.027,12.505 86.027,27.875 c 0,6.449 2.208,12.39 5.899,17.118 -21.823,8.749 -37.282,30.105 -37.282,55.017 v 22.572 c 0,41.545 -19.155,64.118 -27.392,71.895 -2.233,2.109 -2.955,5.368 -1.82,8.224 1.136,2.855 3.897,4.729 6.97,4.729 H 87.06 c 3.285,11.738 14.07,20.375 26.842,20.375 12.772,0 23.557,-8.637 26.842,-20.375 h 54.658 c 3.073,0 5.835,-1.874 6.97,-4.73 1.135,-2.856 0.413,-6.115 -1.821,-8.224 z M 113.902,15 c 7.1,0 12.875,5.776 12.875,12.875 0,7.099 -5.775,12.875 -12.875,12.875 -7.1,0 -12.875,-5.776 -12.875,-12.875 0,-7.099 5.776,-12.875 12.875,-12.875 z m 0,197.805 c -4.3,0 -8.104,-2.127 -10.443,-5.375 h 20.887 c -2.34,3.248 -6.144,5.375 -10.444,5.375 z m 20.395,-20.375 c -0.007,0 -0.013,-0.001 -0.02,-0.001 -0.007,0 -0.013,0.001 -0.02,0.001 h -40.71 c -0.007,0 -0.013,-0.001 -0.02,-0.001 -0.007,0 -0.013,0.001 -0.02,0.001 H 48.742 c 9.907,-13.845 20.902,-36.686 20.902,-69.848 V 100.01 c 0,-24.405 19.854,-44.26 44.26,-44.26 24.405,0 44.26,19.855 44.26,44.26 v 22.572 c 0,33.165 10.992,56.004 20.897,69.848 z"
         id="path1" /></g><g
       style="fill:#000000"
       id="g5"
       transform="matrix(0.08265772,0,0,0.08265772,68.78969,234.50159)"><g
         transform="translate(1,1)"
         id="g2">&#10;	<g
   id="g1">&#10;		<path
   d="M 468.333,169.789 H 274.627 c 32.427,-18.773 49.493,-63.147 36.693,-95.573 -0.853,-4.267 -3.413,-7.68 -5.973,-11.947 -8.533,-12.8 -19.627,-11.947 -23.04,-11.947 -5.12,-0.853 -5.973,0 -19.627,11.093 -17.067,15.36 -52.907,46.933 -88.747,66.56 -1.707,1.707 -39.253,24.747 -67.413,50.347 H 84.333 C 37.4,178.323 -1,216.723 -1,263.656 v 85.333 c 0,36.693 30.72,75.093 66.56,83.627 10.24,2.56 17.92,5.12 21.333,8.533 10.24,8.533 34.133,18.773 65.707,18.773 h 136.533 c 23.893,0 42.667,-18.773 42.667,-42.667 0,-9.387 -3.413,-18.773 -8.533,-25.6 h 8.533 c 23.893,0 42.667,-18.773 42.667,-42.667 0,-9.387 -3.413,-18.773 -8.533,-25.6 23.893,0 42.667,-18.773 42.667,-42.667 0,-9.387 -3.413,-18.773 -8.533,-25.6 h 68.267 c 23.893,0 42.667,-18.773 42.667,-42.667 0,-23.894 -18.775,-42.665 -42.669,-42.665 z m 0,68.267 H 331.8 229.4 c -5.12,0 -8.533,3.413 -8.533,8.533 0,5.12 3.413,8.533 8.533,8.533 h 102.4 34.133 c 14.507,0 25.6,11.093 25.6,25.6 0,14.507 -11.093,25.6 -25.6,25.6 H 331.8 237.933 c -5.12,0 -8.533,3.413 -8.533,8.533 0,5.12 3.413,8.533 8.533,8.533 H 331.8 c 14.507,0 25.6,11.093 25.6,25.6 0,14.507 -11.093,25.6 -25.6,25.6 H 289.133 229.4 c -5.12,0 -8.533,3.413 -8.533,8.533 0,5.12 3.413,8.533 8.533,8.533 h 59.733 c 14.507,0 25.6,11.093 25.6,25.6 0,14.507 -11.093,25.6 -25.6,25.6 H 152.6 c -23.762,0 -40.649,-6.867 -49.268,-12.166 -4.656,-5.402 -6.964,-14.246 -10.466,-27.087 l -0.853,-5.12 c -0.853,-4.267 -5.973,-6.827 -10.24,-5.973 -4.267,0.854 -6.827,5.973 -5.973,10.24 l 1.707,4.267 c 1.036,3.798 2.039,7.594 3.146,11.293 -3.346,-1.058 -6.967,-1.988 -10.826,-2.76 -29.013,-5.973 -53.76,-37.547 -53.76,-66.56 v -85.333 c 0,-37.547 30.72,-68.267 68.267,-68.267 h 8.36 c -1.438,1.946 -2.809,3.919 -4.093,5.973 -3.413,5.12 -5.973,9.387 -10.24,14.507 -3.413,3.413 -2.56,8.533 0.853,11.947 1.707,0.853 3.413,1.707 5.12,1.707 2.56,0 5.12,-0.853 6.827,-3.413 5.12,-5.12 8.533,-10.24 11.947,-15.36 4.224,-5.914 8.451,-11.828 13.504,-17.742 26.455,-25.358 65.856,-49.671 65.856,-49.671 36.693,-20.48 73.387,-52.907 91.307,-68.267 3.413,-2.56 7.68,-5.973 9.387,-7.68 2.56,0 4.267,0 7.68,5.12 1.707,3.413 3.413,5.973 4.267,8.533 7.68,22.187 -2.56,58.88 -30.72,75.093 l -21.317,14.211 c -0.293,0.084 -0.583,0.181 -0.87,0.295 l -17.067,8.533 c -3.413,1.707 -5.12,6.827 -3.413,11.093 1.707,4.266 9.387,5.12 11.093,3.413 l 13.653,-6.827 h 221.867 c 14.507,0 25.6,11.093 25.6,25.6 -0.002,14.51 -11.095,25.603 -25.602,25.603 z"
   id="path1-3" />&#10;	</g>&#10;</g></g></g></svg>
