<?xml version="1.0" encoding="UTF-8" standalone="no"?>
<!-- Created with Inkscape (http://www.inkscape.org/) -->

<svg
   width="480"
   height="800"
   viewBox="0 0 127 211.66667"
   version="1.1"
   id="svg1"
   inkscape:version="1.3 (0e150ed, 2023-07-21)"
   sodipodi:docname="Stewart.svg"
   xml:space="preserve"
   inkscape:export-filename="Stewart.png"
   inkscape:export-xdpi="96"
   inkscape:export-ydpi="96"
   xmlns:inkscape="http://www.inkscape.org/namespaces/inkscape"
   xmlns:sodipodi="http://sodipodi.sourceforge.net/DTD/sodipodi-0.dtd"
   xmlns="http://www.w3.org/2000/svg"
   xmlns:svg="http://www.w3.org/2000/svg"><sodipodi:namedview
     id="namedview1"
     pagecolor="#ffffff"
     bordercolor="#666666"
     borderopacity="1.0"
     inkscape:showpageshadow="2"
     inkscape:pageopacity="0.0"
     inkscape:pagecheckerboard="0"
     inkscape:deskcolor="#d1d1d1"
     inkscape:document-units="mm"
     inkscape:zoom="0.97492347"
     inkscape:cx="240.01884"
     inkscape:cy="399.51854"
     inkscape:window-width="2048"
     inkscape:window-height="1254"
     inkscape:window-x="5163"
     inkscape:window-y="25"
     inkscape:window-maximized="0"
     inkscape:current-layer="layer1"
     showgrid="false" /><defs
     id="defs1"><rect
       x="64.116576"
       y="542.0765"
       width="271.76685"
       height="163.93443"
       id="rect4" /><rect
       x="0"
       y="0"
       width="480"
       height="153.00546"
       id="rect1" /><rect
       x="0"
       y="0"
       width="480"
       height="153.00546"
       id="rect1-6" /><rect
       x="0"
       y="0"
       width="480"
       height="153.00546"
       id="rect1-3" /></defs><g
     inkscape:label="Layer 1"
     inkscape:groupmode="layer"
     id="layer1"
     transform="translate(0,-85.333325)"><text
       xml:space="preserve"
       transform="matrix(0.29220928,0,0,0.29220928,-0.43679292,192.44548)"
       id="text1-5"
       style="font-style:normal;font-variant:normal;font-weight:normal;font-stretch:normal;font-size:74.6667px;line-height:1.25;font-family:UnifrakturCook;-inkscape-font-specification:'UnifrakturCook, Normal';font-variant-ligatures:normal;font-variant-caps:normal;font-variant-numeric:normal;font-variant-east-asian:normal;white-space:pre;shape-inside:url(#rect1-3);display:inline;fill:#000000;fill-opacity:1;stroke:none"><tspan
         x="0"
         y="68.119435"
         id="tspan1">Stewart Street</tspan></text><text
       xml:space="preserve"
       transform="matrix(1.0273029,0,0,1.0273029,29.089454,60.425446)"
       id="text1-2"
       style="font-style:normal;font-variant:normal;font-weight:normal;font-stretch:normal;font-size:133.333px;line-height:1.25;font-family:UnifrakturCook;-inkscape-font-specification:'UnifrakturCook, Normal';font-variant-ligatures:normal;font-variant-caps:normal;font-variant-numeric:normal;font-variant-east-asian:normal;white-space:pre;shape-inside:url(#rect1-6);display:inline;fill:#000000;fill-opacity:1;stroke:none"><tspan
         x="0"
         y="121.64148"
         id="tspan2">3</tspan></text><g
       style="fill:#000000"
       id="g4"
       transform="matrix(0.11614466,0,0,0.11614466,51.627837,219.23126)"><path
         d="m 200.551,194.476 c -8.234,-7.774 -27.387,-30.341 -27.387,-71.894 V 100.01 c 0,-24.913 -15.461,-46.269 -37.285,-55.018 3.691,-4.728 5.898,-10.667 5.898,-17.117 C 141.777,12.505 129.272,0 113.902,0 98.532,0 86.027,12.505 86.027,27.875 c 0,6.449 2.208,12.39 5.899,17.118 -21.823,8.749 -37.282,30.105 -37.282,55.017 v 22.572 c 0,41.545 -19.155,64.118 -27.392,71.895 -2.233,2.109 -2.955,5.368 -1.82,8.224 1.136,2.855 3.897,4.729 6.97,4.729 H 87.06 c 3.285,11.738 14.07,20.375 26.842,20.375 12.772,0 23.557,-8.637 26.842,-20.375 h 54.658 c 3.073,0 5.835,-1.874 6.97,-4.73 1.135,-2.856 0.413,-6.115 -1.821,-8.224 z M 113.902,15 c 7.1,0 12.875,5.776 12.875,12.875 0,7.099 -5.775,12.875 -12.875,12.875 -7.1,0 -12.875,-5.776 -12.875,-12.875 0,-7.099 5.776,-12.875 12.875,-12.875 z m 0,197.805 c -4.3,0 -8.104,-2.127 -10.443,-5.375 h 20.887 c -2.34,3.248 -6.144,5.375 -10.444,5.375 z m 20.395,-20.375 c -0.007,0 -0.013,-0.001 -0.02,-0.001 -0.007,0 -0.013,0.001 -0.02,0.001 h -40.71 c -0.007,0 -0.013,-0.001 -0.02,-0.001 -0.007,0 -0.013,0.001 -0.02,0.001 H 48.742 c 9.907,-13.845 20.902,-36.686 20.902,-69.848 V 100.01 c 0,-24.405 19.854,-44.26 44.26,-44.26 24.405,0 44.26,19.855 44.26,44.26 v 22.572 c 0,33.165 10.992,56.004 20.897,69.848 z"
         id="path1" /></g><g
       style="fill:#000000"
       id="g5"
       transform="matrix(-0.06455687,0,0,0.06455687,33.053247,233.3544)"><g
         transform="translate(1.0000069,-289.06717)"
         id="g2">&#10;	<g
   id="g1">&#10;		<path
   d="M 468.333,169.789 H 274.627 c 32.427,-18.773 49.493,-63.147 36.693,-95.573 -0.853,-4.267 -3.413,-7.68 -5.973,-11.947 -8.533,-12.8 -19.627,-11.947 -23.04,-11.947 -5.12,-0.853 -5.973,0 -19.627,11.093 -17.067,15.36 -52.907,46.933 -88.747,66.56 -1.707,1.707 -39.253,24.747 -67.413,50.347 H 84.333 C 37.4,178.323 -1,216.723 -1,263.656 v 85.333 c 0,36.693 30.72,75.093 66.56,83.627 10.24,2.56 17.92,5.12 21.333,8.533 10.24,8.533 34.133,18.773 65.707,18.773 h 136.533 c 23.893,0 42.667,-18.773 42.667,-42.667 0,-9.387 -3.413,-18.773 -8.533,-25.6 h 8.533 c 23.893,0 42.667,-18.773 42.667,-42.667 0,-9.387 -3.413,-18.773 -8.533,-25.6 23.893,0 42.667,-18.773 42.667,-42.667 0,-9.387 -3.413,-18.773 -8.533,-25.6 h 68.267 c 23.893,0 42.667,-18.773 42.667,-42.667 0,-23.894 -18.775,-42.665 -42.669,-42.665 z m 0,68.267 H 331.8 229.4 c -5.12,0 -8.533,3.413 -8.533,8.533 0,5.12 3.413,8.533 8.533,8.533 h 102.4 34.133 c 14.507,0 25.6,11.093 25.6,25.6 0,14.507 -11.093,25.6 -25.6,25.6 H 331.8 237.933 c -5.12,0 -8.533,3.413 -8.533,8.533 0,5.12 3.413,8.533 8.533,8.533 H 331.8 c 14.507,0 25.6,11.093 25.6,25.6 0,14.507 -11.093,25.6 -25.6,25.6 H 289.133 229.4 c -5.12,0 -8.533,3.413 -8.533,8.533 0,5.12 3.413,8.533 8.533,8.533 h 59.733 c 14.507,0 25.6,11.093 25.6,25.6 0,14.507 -11.093,25.6 -25.6,25.6 H 152.6 c -23.762,0 -40.649,-6.867 -49.268,-12.166 -4.656,-5.402 -6.964,-14.246 -10.466,-27.087 l -0.853,-5.12 c -0.853,-4.267 -5.973,-6.827 -10.24,-5.973 -4.267,0.854 -6.827,5.973 -5.973,10.24 l 1.707,4.267 c 1.036,3.798 2.039,7.594 3.146,11.293 -3.346,-1.058 -6.967,-1.988 -10.826,-2.76 -29.013,-5.973 -53.76,-37.547 -53.76,-66.56 v -85.333 c 0,-37.547 30.72,-68.267 68.267,-68.267 h 8.36 c -1.438,1.946 -2.809,3.919 -4.093,5.973 -3.413,5.12 -5.973,9.387 -10.24,14.507 -3.413,3.413 -2.56,8.533 0.853,11.947 1.707,0.853 3.413,1.707 5.12,1.707 2.56,0 5.12,-0.853 6.827,-3.413 5.12,-5.12 8.533,-10.24 11.947,-15.36 4.224,-5.914 8.451,-11.828 13.504,-17.742 26.455,-25.358 65.856,-49.671 65.856,-49.671 36.693,-20.48 73.387,-52.907 91.307,-68.267 3.413,-2.56 7.68,-5.973 9.387,-7.68 2.56,0 4.267,0 7.68,5.12 1.707,3.413 3.413,5.973 4.267,8.533 7.68,22.187 -2.56,58.88 -30.72,75.093 l -21.317,14.211 c -0.293,0.084 -0.583,0.181 -0.87,0.295 l -17.067,8.533 c -3.413,1.707 -5.12,6.827 -3.413,11.093 1.707,4.266 9.387,5.12 11.093,3.413 l 13.653,-6.827 h 221.867 c 14.507,0 25.6,11.093 25.6,25.6 -0.002,14.51 -11.095,25.603 -25.602,25.603 z"
   id="path1-3" />&#10;	</g>&#10;</g></g><g
       id="g3"
       transform="matrix(2.0673134,0,0,2.0673134,-262.69052,-232.75838)"><path
         d="m 174.13813,221.78457 c -0.0948,0.0164 -0.19441,0.0278 -0.2957,0.0343 l -0.40352,-0.018 c -0.0506,-0.008 -0.10129,-0.018 -0.15193,-0.0311 -0.20911,-0.0556 -0.40352,-0.1601 -0.56525,-0.29733 -0.27773,-0.23688 -0.45907,-0.56852 -0.54402,-0.92793 -0.0996,-0.42639 -0.0637,-0.89035 0.13233,-1.27753 0.14866,-0.2957 0.39372,-0.54565 0.70738,-0.66654 0.21565,-0.0849 0.46397,-0.10782 0.66818,-0.0294 0.27119,0.10619 0.4656,0.39208 0.57179,0.6845 0.13722,0.38392 0.12742,0.77927 0.0604,1.16481 -0.067,0.39372 -0.1895,0.776 -0.35287,1.14031 0.19768,0.0131 0.39862,-0.0228 0.58486,-0.0768 0.0866,-0.0261 0.1699,-0.0556 0.25812,-0.0882 0.049,-0.0147 0.0948,0.008 0.11273,0.0556 0.018,0.0474 -0.002,0.0948 -0.049,0.11599 -0.23852,0.0948 -0.4705,0.17317 -0.73352,0.21728 z m -0.25976,-1.24486 c 0.0572,-0.39535 0.0735,-0.81848 -0.11435,-1.15502 -0.0882,-0.15683 -0.22219,-0.29569 -0.36268,-0.30712 -0.1601,-0.0131 -0.33164,0.13723 -0.43783,0.32346 -0.18297,0.31693 -0.17643,0.73843 -0.098,1.09293 0.0474,0.21075 0.11926,0.39698 0.23525,0.56199 0.12906,0.18134 0.31367,0.3349 0.51788,0.42149 0.13233,-0.2859 0.21074,-0.6012 0.25975,-0.93773 z"
         style="fill:#000000;fill-opacity:1;stroke-width:0px"
         id="path5" /><path
         d="m 171.16483,223.37087 c 0.10946,0.18623 0.46724,0.0849 0.74006,-0.0376 0.12252,-0.0539 0.22708,-0.11273 0.31693,-0.17318 -0.10128,-0.0506 -0.21074,-0.0931 -0.33,-0.12906 -0.1748,-0.0539 -0.37084,-0.0947 -0.57342,-0.0164 -0.0539,0.0196 -0.10782,0.049 -0.1405,0.0899 -0.0621,0.0768 -0.0572,0.1944 -0.0131,0.26629 z m 0.13887,0.45416 c -0.24178,-0.005 -0.50154,-0.049 -0.62407,-0.21891 -0.11272,-0.15521 -0.10945,-0.41496 -0.0147,-0.60283 0.0833,-0.16173 0.23525,-0.26792 0.40025,-0.33654 0.26465,-0.11109 0.55871,-0.12742 0.83317,-0.0703 0.23852,0.049 0.4607,0.15193 0.67308,0.27283 0.0948,-0.0964 0.1797,-0.19604 0.26792,-0.29896 0.20584,-0.24016 0.42312,-0.49174 0.59956,-0.76947 l 0.40352,0.018 c -0.1699,0.33327 -0.37248,0.65021 -0.61263,0.94754 -0.0915,0.11436 -0.18787,0.22544 -0.28916,0.33 0.19767,0.12906 0.38718,0.27119 0.57668,0.41658 l 0.18134,0.14213 c 0.165,-0.12742 0.33491,-0.24832 0.51298,-0.3594 0.27773,-0.17481 0.57342,-0.32347 0.90832,-0.34308 0.27119,-0.018 0.56852,0.049 0.76456,0.23689 0.1601,0.15357 0.25322,0.39044 0.26139,0.61916 0.01,0.28589 -0.11436,0.56035 -0.3202,0.74005 -0.28426,0.24833 -0.72699,0.31367 -1.1011,0.24016 -0.29243,-0.0572 -0.54564,-0.20095 -0.7907,-0.35941 -0.0523,-0.0343 -0.10455,-0.0702 -0.15683,-0.10619 -0.27936,0.22708 -0.56198,0.48193 -0.82991,0.73352 l -0.34144,0.32347 c -0.31203,0.29406 -0.62079,0.57015 -1.04882,0.76293 -0.5146,0.23197 -1.19912,0.34307 -1.57813,0.0457 -0.18134,-0.14213 -0.29406,-0.37901 -0.29079,-0.62733 0.005,-0.28099 0.15683,-0.57996 0.38718,-0.76783 0.21892,-0.17644 0.50807,-0.25485 0.78743,-0.29079 0.40189,-0.0523 0.78417,-0.018 1.15011,0.098 0.13723,0.0425 0.27119,0.0964 0.40352,0.1601 0.20258,-0.16991 0.39045,-0.34144 0.57995,-0.51135 0.10292,-0.0915 0.20585,-0.18297 0.30877,-0.27118 -0.12579,-0.0997 -0.25322,-0.20258 -0.37575,-0.3055 -0.11109,-0.0931 -0.22054,-0.18624 -0.33,-0.27119 -0.098,0.0752 -0.20094,0.14049 -0.30713,0.19767 -0.29243,0.1552 -0.61916,0.23525 -0.98838,0.22545 z m 0.25159,1.15174 c -0.35778,-0.0686 -0.71556,-0.0931 -1.02759,0.0735 -0.12906,0.0686 -0.24995,0.16991 -0.29896,0.29243 -0.0621,0.15847 -0.005,0.35288 0.12579,0.42966 0.22382,0.13069 0.66164,-0.0752 1.02758,-0.28589 0.23035,-0.13233 0.43293,-0.26466 0.6159,-0.39862 -0.14376,-0.0457 -0.29406,-0.0833 -0.44272,-0.11109 z m 3.77378,-0.72209 c 0.16011,-0.0735 0.3104,-0.22217 0.30877,-0.38718 -0.002,-0.13396 -0.10292,-0.27936 -0.22381,-0.34307 -0.21891,-0.11926 -0.49664,0.0294 -0.73516,0.1699 -0.18134,0.10619 -0.34144,0.21075 -0.4901,0.3153 0.1552,0.0964 0.31857,0.17971 0.495,0.23688 0.20912,0.0686 0.4362,0.10293 0.6453,0.008 z"
         style="fill:#000000;fill-opacity:1;stroke-width:0px"
         id="path7" /><path
         d="m 169.17992,228.31437 c -0.19441,0.1405 -0.36104,0.3398 -0.36268,0.55382 -0.002,0.1895 0.1258,0.39044 0.28916,0.47866 0.24832,0.13396 0.58159,0.0114 0.87565,-0.12089 0.49011,-0.22218 0.87566,-0.47377 1.26447,-0.74659 0.11763,-0.0833 0.23688,-0.16827 0.35124,-0.25158 -0.007,-0.002 -0.018,-0.007 -0.0294,-0.01 -0.41496,-0.1503 -0.86748,-0.23035 -1.32818,-0.21565 -0.37248,0.0131 -0.74986,0.0866 -1.06026,0.31204 z m 8.45917,-2.01922 c 0.0637,0.39044 -0.14866,0.80213 -0.46069,1.07332 -0.34144,0.2957 -0.8005,0.42639 -1.23179,0.39208 -0.4509,-0.0376 -0.86912,-0.25649 -1.23506,-0.51461 -0.0898,-0.0653 -0.17808,-0.13232 -0.26303,-0.20093 -0.26138,0.22054 -0.51787,0.44925 -0.78252,0.66163 -0.28917,0.23199 -0.58486,0.446 -0.88546,0.65184 0.0408,0.0229 0.0833,0.0474 0.12743,0.0719 0.11599,0.067 0.23035,0.13233 0.34634,0.19931 l -0.25485,0.36594 c -0.10456,-0.0686 -0.20912,-0.13559 -0.31367,-0.20257 -0.0964,-0.0621 -0.19277,-0.12089 -0.29079,-0.17808 -0.31694,0.20912 -0.63877,0.41659 -0.96224,0.63387 -0.54565,0.36431 -1.09457,0.75966 -1.76274,0.78253 -0.43783,0.0147 -0.92629,-0.13069 -1.17135,-0.47213 -0.14376,-0.19604 -0.20584,-0.45906 -0.17806,-0.70738 0.0327,-0.29079 0.18623,-0.56035 0.39861,-0.7711 0.31857,-0.31529 0.7662,-0.49173 1.20729,-0.55545 0.55545,-0.08 1.10109,0.018 1.6108,0.20748 0.15683,0.0605 0.31204,0.12743 0.46397,0.20257 0.3447,-0.25321 0.69267,-0.50807 1.04555,-0.74985 0.2957,-0.20421 0.59466,-0.39862 0.87729,-0.61099 -0.15521,-0.15194 -0.31367,-0.31204 -0.47377,-0.4705 -0.26302,-0.26139 -0.53748,-0.52278 -0.84461,-0.72372 l 0.34144,-0.32347 c 0.0261,0.0163 0.0556,0.0343 0.0833,0.0539 0.27772,0.1797 0.53911,0.3741 0.77762,0.59302 0.18624,0.1699 0.35778,0.35451 0.53258,0.53748 0.20585,-0.17481 0.41332,-0.34961 0.65021,-0.4901 0.46722,-0.27936 1.04881,-0.42313 1.58303,-0.35451 0.28589,0.0359 0.55708,0.13396 0.76292,0.3349 0.15194,0.14867 0.26793,0.35288 0.30223,0.56362 z m -0.44599,0.11925 c -0.0311,-0.12906 -0.1454,-0.24668 -0.28589,-0.31693 -0.19768,-0.10129 -0.44763,-0.10619 -0.67307,-0.0751 -0.39209,0.0556 -0.70739,0.22055 -1.00472,0.41822 -0.13396,0.0899 -0.26302,0.18461 -0.39045,0.28426 0.0899,0.0752 0.18298,0.14867 0.28426,0.21728 0.26793,0.18297 0.57832,0.33001 0.89853,0.35288 0.26791,0.0196 0.54237,-0.0458 0.78416,-0.21728 0.23688,-0.16664 0.44273,-0.43456 0.38718,-0.66328 z"
         style="fill:#000000;fill-opacity:1;stroke-width:0px"
         id="path9" /><path
         d="m 167.75372,231.58009 c 0.62733,-0.21565 1.30367,-0.25159 1.95878,-0.1601 0.36267,0.0506 0.71882,0.14212 1.05535,0.27446 0.27936,0.10945 0.54565,0.24668 0.80377,0.40025 0.35777,-0.26956 0.70411,-0.55055 1.05209,-0.82501 0.44109,-0.34797 0.88218,-0.68124 1.31837,-1.03085 0.10619,-0.085 0.21238,-0.17153 0.31694,-0.25649 -0.12743,-0.11435 -0.25812,-0.23035 -0.39209,-0.34307 -0.27772,-0.23035 -0.57015,-0.44272 -0.86747,-0.64367 l 0.25485,-0.36594 c 0.34471,0.19931 0.68614,0.40351 1.00797,0.62896 0.16011,0.11273 0.3153,0.23199 0.4705,0.35288 0.16011,-0.12089 0.32347,-0.23689 0.49338,-0.34471 0.48846,-0.31203 1.02431,-0.55381 1.5961,-0.69104 0.50154,-0.11926 1.02921,-0.15684 1.52422,0.008 0.33163,0.11109 0.6502,0.31203 0.82337,0.61099 0.19931,0.34144 0.21074,0.81031 0.0556,1.18605 -0.18787,0.4509 -0.61263,0.7711 -1.07006,0.95244 -0.4901,0.19277 -1.01614,0.22871 -1.51279,0.12579 -0.54074,-0.11273 -1.04555,-0.38719 -1.49318,-0.72046 -0.0866,-0.0637 -0.17153,-0.13069 -0.25485,-0.1993 -0.15357,0.12416 -0.30713,0.25158 -0.45906,0.37738 -0.56035,0.46233 -1.11744,0.91975 -1.69249,1.36902 -0.13559,0.10619 -0.27119,0.21238 -0.40352,0.31203 0.11763,0.0817 0.23852,0.16664 0.35941,0.25158 0.13396,0.0931 0.26793,0.18461 0.40189,0.2761 l -0.25812,0.39861 c -0.3055,-0.20584 -0.61263,-0.41168 -0.92303,-0.61099 -0.52768,0.38718 -1.06679,0.75312 -1.61897,1.07006 -0.63877,0.36594 -1.29387,0.66654 -2.05517,0.90669 -0.6159,0.19277 -1.30204,0.34797 -1.81501,0.0457 -0.24832,-0.14703 -0.4558,-0.40025 -0.55382,-0.68124 -0.10782,-0.31367 -0.08,-0.66164 0.0245,-0.97858 0.14213,-0.42638 0.42476,-0.79723 0.76783,-1.08802 0.31857,-0.27119 0.69268,-0.47377 1.08476,-0.60773 z m 2.542,0.44435 c -0.68941,-0.24014 -1.49808,-0.24668 -2.19076,-0.0212 -0.45743,0.14867 -0.86422,0.39862 -1.21219,0.76456 -0.1797,0.18951 -0.3447,0.40842 -0.42965,0.65347 -0.0784,0.22219 -0.0899,0.46397 0.0196,0.61263 0.15193,0.20258 0.53258,0.22545 0.87402,0.19768 0.62407,-0.0523 1.1109,-0.27283 1.59937,-0.52115 0.73515,-0.37248 1.47031,-0.80213 2.16462,-1.28733 -0.26302,-0.15357 -0.53421,-0.29733 -0.82501,-0.39862 z m 8.21412,-1.4703 c 0.21565,-0.25812 0.32674,-0.66164 0.19278,-0.92629 -0.12089,-0.24016 -0.4411,-0.36758 -0.74169,-0.41659 -0.33327,-0.0539 -0.64367,-0.01 -0.941,0.0768 -0.42149,0.12252 -0.82011,0.32837 -1.19421,0.56852 -0.14867,0.0948 -0.29244,0.19441 -0.42967,0.29569 0.0621,0.0506 0.1258,0.10129 0.18951,0.15357 0.29733,0.23688 0.60773,0.47213 0.95407,0.59466 0.31203,0.10945 0.65511,0.12743 1.00308,0.0866 0.3594,-0.0425 0.72698,-0.14703 0.96713,-0.43292 z"
         style="fill:#000000;fill-opacity:1;stroke-width:0px"
         id="path11" /><path
         d="m 175.87146,235.79171 c 0.0882,0.18787 0.0784,0.44109 -0.008,0.64039 -0.10456,0.24342 -0.32511,0.40516 -0.57015,0.50971 -0.35615,0.15194 -0.7662,0.18134 -1.11091,0.0327 -0.29732,-0.12743 -0.54891,-0.38555 -0.6551,-0.6845 -0.11436,-0.32184 -0.0621,-0.68942 0.0457,-1.02269 0.1111,-0.34307 0.281,-0.6502 0.48357,-0.92793 -0.0931,-0.0605 -0.1944,-0.12742 -0.29406,-0.1944 -0.30713,-0.20585 -0.61426,-0.41332 -0.91976,-0.6208 l 0.25812,-0.39862 c 0.40189,0.27283 0.80704,0.53748 1.21709,0.7956 0.018,0.01 0.0343,0.0212 0.0506,0.0311 0.165,-0.1846 0.34634,-0.35777 0.54402,-0.5097 0.59629,-0.4607 1.34125,-0.73679 2.07804,-0.88219 0.66816,-0.13396 1.32817,-0.15847 2.03065,-0.018 0.54565,0.10946 1.1158,0.31857 1.4066,0.76456 0.15683,0.24179 0.23198,0.55219 0.19604,0.83808 -0.0556,0.44273 -0.37901,0.82338 -0.75313,1.09129 -0.4852,0.34471 -1.05372,0.49828 -1.62877,0.53422 -0.79233,0.0506 -1.59447,-0.1258 -2.33126,-0.42149 -0.47376,-0.19114 -0.92139,-0.43292 -1.35595,-0.69595 -0.0212,0.0278 -0.0409,0.0572 -0.0605,0.0849 -0.15519,0.22382 -0.28752,0.46724 -0.27608,0.7515 0.01,0.25158 0.13232,0.53584 0.33,0.65837 0.10455,0.0637 0.23035,0.0833 0.35124,0.0833 0.22055,0 0.42965,-0.0653 0.60773,-0.19441 0.12742,-0.0931 0.23851,-0.21891 0.24504,-0.44437 0.0408,0.067 0.0866,0.12743 0.11926,0.19932 z m 3.72641,-1.28408 c 0.12906,-0.21891 0.18624,-0.50153 0.10619,-0.72208 -0.0915,-0.25159 -0.36104,-0.42312 -0.63223,-0.54075 -0.4852,-0.21074 -0.97858,-0.24995 -1.47358,-0.22708 -0.43946,0.0229 -0.87891,0.0931 -1.2906,0.25485 -0.39372,0.15521 -0.76293,0.39046 -1.08966,0.66981 -0.12253,0.10456 -0.24015,0.21565 -0.33817,0.32184 0.28752,0.1699 0.59629,0.3349 0.91812,0.47376 0.53585,0.23198 1.10437,0.38882 1.68922,0.45089 0.44109,0.0474 0.88872,0.0408 1.31348,-0.0996 0.31857,-0.10619 0.62406,-0.28589 0.79723,-0.58159 z"
         style="fill:#000000;fill-opacity:1;stroke-width:0px"
         id="path13" /><path
         d="m 165.78351,236.37983 c 0.13886,-0.0637 0.28099,-0.1209 0.42802,-0.165 l 0.0915,0.33327 c -0.26629,0.0735 -0.50807,0.19767 -0.72535,0.3545 -0.30059,0.21565 -0.55218,0.4901 -0.77272,0.81031 -0.24342,0.35287 -0.44927,0.76292 -0.42149,1.17297 0.0131,0.19932 0.0817,0.40025 0.22545,0.52605 0.15029,0.13233 0.38064,0.18297 0.60772,0.16664 0.21565,-0.0164 0.42639,-0.0948 0.59302,-0.23199 0.1503,-0.12252 0.26303,-0.29079 0.30387,-0.50807 0.049,-0.27119 -0.0164,-0.6208 -0.23035,-0.70085 -0.11272,-0.0441 -0.26629,-0.0114 -0.36594,0.0621 -0.0817,0.0605 -0.12743,0.14703 -0.17317,0.23362 -0.0229,-0.0261 -0.0458,-0.0539 -0.0621,-0.0849 -0.0147,-0.0294 -0.0261,-0.0621 -0.0327,-0.0948 -0.0311,-0.15031 0.0164,-0.30387 0.10782,-0.4313 0.11599,-0.16173 0.30386,-0.28262 0.50481,-0.33327 0.1944,-0.049 0.40025,-0.0327 0.57015,0.0506 0.19114,0.0915 0.33817,0.26955 0.41332,0.47212 0.10292,0.27446 0.0752,0.59793 -0.01,0.88709 -0.098,0.33491 -0.27446,0.62407 -0.52768,0.83645 -0.26956,0.22871 -0.62896,0.37084 -1.00144,0.38718 -0.29406,0.0147 -0.59629,-0.049 -0.82174,-0.21401 -0.23362,-0.16991 -0.38392,-0.44927 -0.45579,-0.73679 -0.0752,-0.3055 -0.0589,-0.62244 0.0196,-0.91486 0.0964,-0.35124 0.28752,-0.67144 0.52277,-0.9508 0.32837,-0.39045 0.74659,-0.70575 1.21219,-0.92629 z"
         style="fill:#000000;fill-opacity:1;stroke-width:0px"
         id="path15" /><path
         d="m 166.80292,236.47295 c -0.17317,0.003 -0.34144,0.0311 -0.49991,0.0752 l -0.0915,-0.33327 c 0.27119,-0.0817 0.55218,-0.12253 0.83644,-0.0948 0.36921,0.0359 0.74333,0.18461 0.98674,0.44926 0.26139,0.28426 0.37411,0.70085 0.38392,1.09457 0.007,0.24015 -0.0245,0.47049 -0.0572,0.70248 0.0605,-0.1454 0.12416,-0.2859 0.19115,-0.42476 l 0.3594,0.1699 c -0.14049,0.3055 -0.24668,0.62407 -0.36757,0.94917 -0.18788,0.50971 -0.40679,1.04065 -0.70575,1.43437 -0.098,0.13069 -0.20585,0.24668 -0.37248,0.3398 -0.0556,0.0311 -0.11762,0.0605 -0.18787,0.0866 -0.18624,0.0703 -0.43456,0.1209 -0.4656,0.0261 -0.0196,-0.0588 0.0457,-0.1748 0.10619,-0.27282 0.0898,-0.14214 0.16826,-0.24342 0.23688,-0.35778 0.21565,-0.35941 0.32347,-0.83971 0.43619,-1.2857 0.1209,-0.4754 0.24669,-0.91323 0.26303,-1.4262 0.0114,-0.31367 -0.0196,-0.65511 -0.20421,-0.86095 -0.18625,-0.20747 -0.52931,-0.27772 -0.84788,-0.27119 z"
         style="fill:#000000;fill-opacity:1;stroke-width:0px"
         id="path17" /><path
         d="m 168.55259,237.94162 c 0.067,-0.13723 0.13396,-0.27282 0.20094,-0.40842 0.18297,-0.36594 0.35941,-0.73352 0.69758,-1.07169 0.24995,-0.24995 0.58649,-0.4852 0.86421,-0.37738 0.11763,0.0458 0.22218,0.1503 0.28753,0.26629 0.13397,0.23525 0.0996,0.51624 0.0327,0.77926 -0.08,0.32021 -0.20748,0.61263 -0.26302,0.9263 -0.0294,0.16664 -0.0392,0.33817 -0.049,0.51134 0.0735,-0.1503 0.14867,-0.29896 0.22872,-0.45253 0.1552,-0.29406 0.33817,-0.60446 0.5146,-0.88055 l 0.34308,0.0964 c -0.15683,0.23524 -0.26466,0.43619 -0.38065,0.65837 -0.25649,0.495 -0.54238,1.09783 -0.80703,1.5814 -0.17808,0.32673 -0.34634,0.59792 -0.72045,0.97203 -0.24015,0.24179 -0.56526,0.52605 -0.64694,0.39209 -0.0408,-0.0653 -0.0212,-0.23525 0.005,-0.38392 0.0457,-0.25649 0.11109,-0.44436 0.19441,-0.64693 0.15193,-0.37248 0.36268,-0.79234 0.4852,-1.14357 0.11436,-0.32511 0.1552,-0.5914 0.32184,-1.10437 0.15519,-0.4852 0.42476,-1.19095 0.1944,-1.06842 -0.0441,0.0228 -0.10455,0.0752 -0.16173,0.12742 -0.18787,0.17317 -0.3202,0.33817 -0.45089,0.51788 -0.16827,0.23034 -0.33327,0.4852 -0.46723,0.74822 -0.0212,0.0425 -0.0425,0.0866 -0.0637,0.13069 z"
         style="fill:#000000;fill-opacity:1;stroke-width:0px"
         id="path19" /><path
         d="m 171.14196,237.11825 c 0.17808,-0.27282 0.34634,-0.50154 0.56689,-0.73025 0.18134,-0.18624 0.39698,-0.37248 0.68615,-0.40025 0.12579,-0.0131 0.26791,0.005 0.3398,0.08 0.0882,0.0899 0.0784,0.26303 0.0539,0.42313 -0.0572,0.39208 -0.19277,0.70738 -0.31529,1.00144 -0.19115,0.46397 -0.35125,0.87565 -0.59467,1.51115 -0.17643,0.45906 -0.39697,1.03575 -0.0457,1.17788 0.0506,0.0196 0.11436,0.0311 0.16827,0.0245 0.12089,-0.0147 0.20257,-0.11762 0.28753,-0.22381 l 0.24831,0.0457 c -0.0228,0.0229 -0.0441,0.0474 -0.0653,0.0719 -0.21238,0.23525 -0.38392,0.49827 -0.66654,0.6453 -0.13886,0.0719 -0.30223,0.11599 -0.44273,0.0751 -0.15356,-0.0441 -0.28099,-0.18788 -0.35451,-0.33981 -0.12252,-0.25322 -0.0996,-0.52931 -0.0474,-0.80377 0.0572,-0.29569 0.14703,-0.58812 0.22381,-0.84461 0.11273,-0.37084 0.20094,-0.66817 0.41986,-1.18768 0.19114,-0.45416 0.48357,-1.07823 0.37411,-1.03085 -0.0621,0.0278 -0.24668,0.26302 -0.39535,0.46723 -0.0653,0.0882 -0.12253,0.17154 -0.17317,0.24995 l -0.34307,-0.0964 c 0.0245,-0.0392 0.0506,-0.0784 0.0752,-0.11599 z"
         style="fill:#000000;fill-opacity:1;stroke-width:0px"
         id="path21" /><path
         d="m 173.16119,239.42664 c 0.25649,-0.098 0.51134,-0.19768 0.74822,-0.33818 0.18951,-0.11272 0.36758,-0.25158 0.43783,-0.49337 0.0392,-0.13233 0.0457,-0.29733 -0.018,-0.37411 -0.0637,-0.0752 -0.1944,-0.067 -0.3153,-0.0229 -0.19277,0.0719 -0.35777,0.23035 -0.4852,0.39699 -0.12906,0.16827 -0.21891,0.3447 -0.28426,0.52114 -0.0359,0.10129 -0.0653,0.20257 -0.0833,0.3104 z m -0.87238,0.55544 c 0.0278,-0.0359 0.0556,-0.0719 0.0849,-0.10455 0.0719,-0.0817 0.1503,-0.14703 0.23524,-0.20094 0.0164,-0.26793 0.049,-0.51952 0.116,-0.74006 0.0866,-0.28099 0.22708,-0.51134 0.42475,-0.70738 0.27936,-0.28099 0.67144,-0.49174 1.1109,-0.4901 0.20748,0 0.42639,0.0473 0.56199,0.18787 0.13723,0.14376 0.1895,0.38064 0.14866,0.57832 -0.002,0.0147 -0.007,0.0294 -0.01,0.0441 -0.0425,0.15356 -0.14377,0.27936 -0.26139,0.39535 -0.23852,0.23688 -0.54238,0.43783 -0.85441,0.51787 -0.21891,0.0556 -0.44273,0.0523 -0.64694,0.116 -0.0196,0.005 -0.0392,0.0114 -0.0572,0.018 -0.003,0.0425 -0.005,0.0849 -0.005,0.13069 0,0.15357 0.0163,0.32837 0.11762,0.39208 0.0572,0.0343 0.1405,0.0343 0.21891,0.0294 0.1895,-0.0131 0.34471,-0.0621 0.49827,-0.13395 0.21075,-0.098 0.41496,-0.24015 0.6061,-0.38555 l 0.1797,0.24178 c -0.13069,0.10129 -0.26465,0.19768 -0.40515,0.28916 -0.35124,0.22872 -0.74333,0.42149 -1.15991,0.39208 -0.19605,-0.0131 -0.39862,-0.0751 -0.49828,-0.23198 -0.0621,-0.0948 -0.0849,-0.22381 -0.0899,-0.35941 l -0.067,0.067 z"
         style="fill:#000000;fill-opacity:1;stroke-width:0px"
         id="path23" /><path
         d="m 176.5527,239.71579 c -0.18461,0.20095 -0.37248,0.36431 -0.67634,0.51134 -0.27773,0.1356 -0.65184,0.25649 -0.77273,0.0817 -0.0588,-0.0849 -0.0572,-0.24505 -0.0343,-0.38228 0.0261,-0.15193 0.0768,-0.27936 0.12742,-0.40679 -0.1454,0.11926 -0.28916,0.23688 -0.43946,0.35124 l -0.1797,-0.24178 c 0.0637,-0.0474 0.12743,-0.0964 0.18787,-0.14376 0.19441,-0.15194 0.37412,-0.28917 0.54401,-0.53748 0.10946,-0.15847 0.21402,-0.36431 0.1013,-0.48194 -0.0343,-0.0343 -0.0866,-0.0621 -0.13396,-0.0604 -0.0637,0.002 -0.116,0.0572 -0.16827,0.11272 0.0131,-0.0572 0.0278,-0.11436 0.0343,-0.17154 0.018,-0.14049 0,-0.28589 -0.018,-0.42965 0.18298,-0.003 0.36595,-0.007 0.57506,0.0212 0.10455,0.0147 0.21564,0.0359 0.28752,-0.018 0.0523,-0.0376 0.0833,-0.11436 0.13233,-0.1552 0.085,-0.0735 0.22054,-0.0425 0.35451,-0.0131 -0.0164,0.0866 -0.0327,0.17153 -0.0702,0.24668 -0.0392,0.0768 -0.10292,0.14213 -0.15846,0.21238 -0.12253,0.15683 -0.20912,0.34471 -0.26793,0.51298 -0.0752,0.21727 -0.10129,0.39861 -0.15683,0.72861 -0.0343,0.19931 -0.0784,0.45416 0.005,0.45416 0.0441,0 0.12089,-0.0702 0.19277,-0.13396 0.22545,-0.20747 0.38392,-0.37411 0.52278,-0.53421 0.12416,-0.14376 0.23361,-0.28262 0.41168,-0.51787 0.10619,-0.14213 0.23852,-0.31857 0.17154,-0.37085 -0.0392,-0.0327 -0.15193,-0.0196 -0.24342,-0.0212 -0.0915,-0.003 -0.16337,-0.0212 -0.23688,-0.0376 0.0556,-0.067 0.11109,-0.13396 0.14213,-0.21074 0.0343,-0.085 0.0359,-0.18134 0.0392,-0.27773 0.21238,0.008 0.42312,0.0164 0.64856,0.0327 0.10783,0.007 0.22055,0.0164 0.31204,-0.0294 0.067,-0.0343 0.12252,-0.0996 0.19114,-0.13069 0.08,-0.0359 0.1748,-0.0261 0.26955,-0.0164 -0.098,0.10782 -0.19604,0.21728 -0.27936,0.33654 -0.11272,0.16173 -0.20093,0.34633 -0.28262,0.51787 -0.10129,0.21238 -0.18951,0.40352 -0.27119,0.67798 -0.0539,0.1748 -0.10292,0.38554 0.0147,0.48683 0.0245,0.0212 0.0572,0.0376 0.0915,0.0457 0.0948,0.0196 0.19114,-0.0376 0.27446,-0.0997 0.14213,-0.10455 0.24342,-0.22054 0.34634,-0.34634 l 0.29079,0.0278 c -0.0947,0.1405 -0.19114,0.27936 -0.30059,0.41006 -0.18134,0.21727 -0.39862,0.40351 -0.69595,0.49173 -0.20584,0.0605 -0.4509,0.0735 -0.58812,-0.0555 -0.0899,-0.0833 -0.13233,-0.22872 -0.12906,-0.36104 0.003,-0.15521 0.0686,-0.29407 0.13559,-0.43129 -0.0996,0.12252 -0.19931,0.24504 -0.3006,0.35614 z"
         style="fill:#000000;fill-opacity:1;stroke-width:0px"
         id="path25" /><path
         d="m 182.58913,240.64862 c -0.43946,0.1454 -0.92956,0.1405 -1.37392,0.0212 -0.32347,-0.0866 -0.62243,-0.23525 -0.93773,-0.3398 l 0.098,-0.29896 c 0.10292,0.0343 0.20585,0.0719 0.30877,0.10619 0.35777,0.12089 0.72371,0.22708 1.09946,0.23362 0.3153,0.005 0.63877,-0.0605 0.91976,-0.21238 0.26956,-0.1454 0.4999,-0.36922 0.65837,-0.62897 0.15684,-0.25485 0.24505,-0.54238 0.25975,-0.85441 0.0147,-0.3006 -0.0392,-0.62243 -0.23688,-0.84298 -0.14049,-0.15683 -0.35451,-0.26302 -0.56198,-0.26629 -0.25486,-0.005 -0.49991,0.1454 -0.66328,0.36921 -0.18133,0.24505 -0.26302,0.57832 -0.12579,0.82664 0.0702,0.1258 0.19768,0.23198 0.33164,0.26629 0.15193,0.0392 0.31203,-0.01 0.47213,-0.0572 -0.098,0.16174 -0.19604,0.32347 -0.34797,0.42966 -0.16337,0.11272 -0.38882,0.16337 -0.57996,0.11272 -0.21564,-0.0572 -0.38718,-0.24014 -0.48846,-0.44435 -0.10293,-0.21075 -0.1307,-0.44273 -0.10456,-0.66981 0.0294,-0.26629 0.13396,-0.52442 0.30386,-0.73516 0.23852,-0.29733 0.60446,-0.4999 0.98838,-0.53258 0.3545,-0.0294 0.72371,0.0866 0.99,0.31694 0.24669,0.21074 0.40516,0.52114 0.46233,0.83971 0.0556,0.31693 0.0114,0.64367 -0.0915,0.94916 -0.10619,0.31694 -0.27446,0.611 -0.50317,0.85115 -0.23852,0.25485 -0.54402,0.45089 -0.87729,0.56035 z"
         style="fill:#000000;fill-opacity:1;stroke-width:0px"
         id="path27" /><path
         d="m 178.07529,240.51139 c -0.19768,0.13886 -0.37575,0.33327 -0.41822,0.56526 -0.0164,0.0866 -0.0131,0.17643 0.0261,0.23361 0.0899,0.12416 0.36431,0.08 0.57179,0.01 0.18134,-0.0637 0.3104,-0.14704 0.43293,-0.24669 0.19114,-0.15683 0.36431,-0.35124 0.51787,-0.57342 0.0735,-0.10619 0.14376,-0.21728 0.20258,-0.33164 -0.23689,-0.007 -0.48031,0.0212 -0.71228,0.0768 -0.22055,0.0539 -0.42966,0.13396 -0.6208,0.26629 z m -0.87892,0.6306 c 0.0261,-0.17807 0.098,-0.33327 0.19604,-0.4705 0.15847,-0.22217 0.38555,-0.39698 0.6306,-0.52277 0.28752,-0.14867 0.60283,-0.23362 0.92139,-0.27283 0.19931,-0.0245 0.39862,-0.0327 0.59793,-0.0196 0.0212,-0.067 0.0392,-0.13396 0.0523,-0.20094 0.0196,-0.10946 0.0278,-0.22055 0.0359,-0.33164 -0.0408,0.0408 -0.0817,0.08 -0.12416,0.11763 -0.16173,0.14213 -0.35123,0.24341 -0.58976,0.28099 -0.14539,0.0228 -0.31039,0.0228 -0.39208,-0.0556 -0.0784,-0.0735 -0.085,-0.21728 -0.0931,-0.36105 l -0.29079,-0.0278 c 0.11109,-0.13396 0.22218,-0.27936 0.31366,-0.43946 0.0931,-0.16663 0.16338,-0.3496 0.21892,-0.52604 0.0735,-0.23362 0.12089,-0.45416 0.21238,-0.67471 0.0686,-0.16827 0.16173,-0.33491 0.3447,-0.41985 0.11273,-0.0523 0.25976,-0.0719 0.32837,-0.01 0.0539,0.049 0.0588,0.14866 0.0474,0.24179 -0.0294,0.24341 -0.17154,0.44599 -0.28426,0.63222 -0.12416,0.20421 -0.21401,0.38882 -0.30876,0.69922 -0.0506,0.16827 -0.10293,0.37248 0.007,0.42802 0.0376,0.018 0.0931,0.0196 0.14376,0.0147 0.10293,-0.0114 0.18788,-0.0506 0.2663,-0.10129 0.17316,-0.11109 0.31693,-0.27446 0.41985,-0.45089 0.0849,-0.1454 0.14376,-0.3006 0.20258,-0.46233 0.10455,-0.28753 0.2091,-0.59629 0.39044,-0.84788 0.14213,-0.19767 0.33001,-0.35941 0.54239,-0.38554 0.11109,-0.0131 0.22871,0.01 0.36757,0.0686 -0.0457,0.0588 -0.0915,0.11762 -0.13559,0.1797 -0.33981,0.48193 -0.50154,1.07169 -0.68452,1.64021 -0.12089,0.37411 -0.24995,0.74006 -0.40678,1.08966 0.0833,0.0229 0.16664,0.049 0.24995,0.0768 l -0.098,0.29897 c -0.0964,-0.0327 -0.19277,-0.0621 -0.29079,-0.0849 -0.10619,0.20584 -0.22381,0.40842 -0.35941,0.60446 -0.23198,0.33654 -0.51297,0.65673 -0.85768,0.86585 -0.21564,0.13069 -0.4558,0.21727 -0.72209,0.22871 -0.0588,0.003 -0.11762,0.002 -0.17643,-0.003 -0.25812,-0.0196 -0.50644,-0.11599 -0.6159,-0.3251 -0.0702,-0.13396 -0.0833,-0.31367 -0.0588,-0.47377 z"
         style="fill:#000000;fill-opacity:1;stroke-width:0px"
         id="path29" /><circle
         cx="171.38864"
         cy="242.42606"
         r="0.24015036"
         style="fill:#000000;fill-opacity:1;stroke-width:0px"
         id="circle31" /><path
         d="m 162.51289,241.70071 c 0.10945,-0.0196 0.22381,-0.0637 0.27936,-0.14867 0.0833,-0.13395 0.0261,-0.36757 -0.0997,-0.47703 -0.13886,-0.12089 -0.36104,-0.0882 -0.54075,-0.0131 -0.29569,0.12743 -0.47376,0.37412 -0.63059,0.6355 -0.11599,0.19441 -0.21892,0.39699 -0.26466,0.61263 -0.0572,0.26466 -0.0261,0.54729 0.0637,0.81521 0.0261,0.0768 0.0572,0.15356 0.0948,0.22545 l -0.35451,0.0931 c -0.11273,-0.21728 -0.17807,-0.4607 -0.20258,-0.70738 -0.031,-0.32837 0.007,-0.66327 0.11763,-0.97367 0.15356,-0.43619 0.44926,-0.82664 0.84624,-1.08639 0.30223,-0.19768 0.66491,-0.32021 1.02269,-0.28427 0.20093,0.0213 0.40025,0.0915 0.54564,0.22709 0.15357,0.14376 0.24505,0.35941 0.23689,0.56851 -0.01,0.21565 -0.12743,0.42313 -0.2761,0.57506 -0.0228,0.0229 -0.0457,0.0441 -0.0702,0.0654 -0.17153,0.14376 -0.37901,0.22381 -0.61752,0.24342 -0.18951,0.0164 -0.40025,-0.005 -0.50808,-0.13723 -0.0506,-0.0621 -0.08,-0.14867 -0.08,-0.24179 0.14377,0.018 0.2859,0.0359 0.43783,0.008 z"
         style="fill:#000000;fill-opacity:1;stroke-width:0px"
         id="path33" /><path
         d="m 164.87191,242.28556 c 0.0964,-0.17806 0.17481,-0.38718 0.0948,-0.56198 -0.0245,-0.0539 -0.0637,-0.10456 -0.10782,-0.13723 -0.20911,-0.15847 -0.52768,0.0702 -0.7809,0.27609 -0.33817,0.2761 -0.55708,0.51134 -0.77763,0.79234 -0.22871,0.29079 -0.45907,0.63059 -0.59629,1.02268 -0.0228,0.067 -0.0441,0.13559 -0.0621,0.20421 0.32183,-0.0425 0.62733,-0.17481 0.90833,-0.33981 0.29732,-0.17643 0.56688,-0.38881 0.8103,-0.61916 0.19604,-0.18461 0.37247,-0.38065 0.51133,-0.63714 z m 0.53748,-0.825 c 0.0458,0.19604 0.0212,0.39208 -0.0392,0.57342 -0.0849,0.26302 -0.24178,0.49827 -0.41658,0.71719 -0.26629,0.3349 -0.57178,0.63386 -0.91159,0.88708 -0.28263,0.20911 -0.58976,0.38881 -0.93119,0.50153 -0.17318,0.0572 -0.35451,0.0964 -0.53748,0.11273 -0.0376,0.3104 -0.0229,0.6257 0.0457,0.90832 0.0523,0.22055 0.13723,0.41986 0.28099,0.57016 0.17807,0.18461 0.446,0.29079 0.70412,0.29569 0.0327,0 0.0653,0 0.098,-0.003 l 0.0653,0.34308 c -0.0523,0.0114 -0.10455,0.0196 -0.15846,0.0261 -0.34798,0.0408 -0.72209,-0.0196 -1.01615,-0.20748 -0.24995,-0.15847 -0.44109,-0.41005 -0.55708,-0.68451 -0.1552,-0.36758 -0.17644,-0.77763 -0.12089,-1.17461 0.007,-0.0458 0.0147,-0.0915 0.0228,-0.13559 -0.0147,-0.005 -0.0327,-0.0114 -0.0506,-0.0164 -0.27446,-0.098 -0.52278,-0.28589 -0.69758,-0.52278 -0.049,-0.0653 -0.0915,-0.13559 -0.12906,-0.20747 l 0.35451,-0.0931 c 0.0621,0.11925 0.14213,0.22708 0.24179,0.3104 0.10455,0.0866 0.23034,0.14703 0.3643,0.1846 0.11599,-0.38228 0.29733,-0.73842 0.51134,-1.04229 0.1797,-0.25158 0.38065,-0.46559 0.61427,-0.69104 0.0686,-0.0653 0.13886,-0.13233 0.21237,-0.19767 0.29243,-0.26303 0.63223,-0.52278 1.04065,-0.70902 0.30877,-0.14049 0.65511,-0.24015 0.84951,-0.0621 0.0801,0.0735 0.13397,0.19441 0.1601,0.31694 z"
         style="fill:#000000;fill-opacity:1;stroke-width:0px"
         id="path35" /><path
         d="m 167.06594,243.04195 c 0.0996,-0.18787 0.18297,-0.39044 0.24505,-0.59955 0.0376,-0.12743 0.067,-0.25812 0.0441,-0.40189 -0.01,-0.0637 -0.0311,-0.13069 -0.0817,-0.14539 -0.0229,-0.005 -0.0523,0 -0.0752,0.0131 -0.0425,0.0245 -0.0637,0.0751 -0.0849,0.12252 -0.12906,0.2957 -0.22219,0.50481 -0.30877,0.75803 -0.0686,0.20094 -0.1356,0.43129 -0.1846,0.65837 -0.0245,0.11926 -0.0441,0.23851 -0.0605,0.3447 0.003,-0.003 0.0147,-0.018 0.0261,-0.0327 0.17643,-0.22382 0.3447,-0.45743 0.4803,-0.71719 z m -1.07005,2.93409 c -0.17644,0.22381 -0.39699,0.46887 -0.60283,0.39208 -0.067,-0.0245 -0.13233,-0.0833 -0.1356,-0.1454 -0.005,-0.085 0.10293,-0.17643 0.16174,-0.27936 0.0294,-0.0556 0.0474,-0.11272 0.0637,-0.16826 0.0458,-0.1601 0.0931,-0.3153 0.13886,-0.46396 -0.22871,0.18296 -0.46723,0.35777 -0.71718,0.52277 -0.35124,0.23362 -0.72535,0.44926 -1.13704,0.53258 l -0.0653,-0.34307 c 0.39861,-0.0311 0.77109,-0.28753 1.11906,-0.55545 0.36758,-0.281 0.70738,-0.57342 1.02269,-0.88382 0.0212,-0.0735 0.0408,-0.14703 0.0621,-0.22218 0.0931,-0.34797 0.17154,-0.70739 0.27283,-1.06843 0.10619,-0.37737 0.23851,-0.75475 0.39861,-1.10436 0.13887,-0.3055 0.29897,-0.58976 0.53585,-0.81357 0.11599,-0.10782 0.24669,-0.20421 0.38228,-0.21238 0.0245,-0.002 0.0474,-0.002 0.0719,0.003 0.0735,0.0131 0.14703,0.0556 0.19931,0.11436 0.12416,0.14049 0.12906,0.38391 0.10129,0.60609 -0.0376,0.30713 -0.1405,0.57178 -0.26139,0.83971 -0.1454,0.3251 -0.31857,0.65347 -0.4558,0.88055 -0.10455,0.17317 -0.18787,0.28916 -0.41168,0.6698 0.0294,-0.0327 0.0588,-0.067 0.0882,-0.10128 0.16827,-0.19767 0.31693,-0.40352 0.50154,-0.611 0.12579,-0.14376 0.26955,-0.28753 0.45579,-0.30059 0.13069,-0.01 0.28426,0.0474 0.36104,0.13559 0.16827,0.19441 -0.0359,0.54238 -0.15846,0.82828 -0.0849,0.1993 -0.13233,0.36594 -0.18297,0.55382 -0.0589,0.21891 -0.12253,0.46559 -0.0311,0.70574 0.0261,0.067 0.0637,0.13397 0.10619,0.16173 0.1209,0.0768 0.28753,-0.14376 0.41659,-0.3251 0.18951,-0.26629 0.30059,-0.45089 0.41168,-0.65183 0.0702,-0.12906 0.1405,-0.26302 0.17971,-0.4558 0.0228,-0.10782 0.0343,-0.23198 -0.0343,-0.27119 -0.067,-0.0359 -0.21075,0.008 -0.26139,-0.0392 -0.0392,-0.0375 -0.0212,-0.13069 -0.005,-0.20584 0.0196,-0.0899 0.0392,-0.1552 0.0375,-0.24669 0,-0.0588 -0.008,-0.12742 0.0327,-0.15846 0.0359,-0.0278 0.11109,-0.0294 0.13722,0 0.0327,0.0392 -0.0147,0.12742 0.002,0.17644 0.0147,0.049 0.098,0.0523 0.16826,0.0556 0.1699,0.007 0.27283,0 0.43293,-0.002 0.0392,0 0.0833,0 0.0996,-0.0245 0.0229,-0.0343 -0.0114,-0.12089 -0.005,-0.165 0.008,-0.0425 0.0572,-0.0441 0.11272,-0.049 0.0752,-0.005 0.16174,-0.0131 0.19442,0.0376 0.018,0.0294 0.0196,0.0752 0.0245,0.12416 0.008,0.0833 0.0278,0.17317 -0.0131,0.19767 -0.0425,0.0278 -0.15357,-0.0147 -0.20748,0.0164 -0.0359,0.0212 -0.0474,0.0719 -0.0605,0.12253 -0.0637,0.23198 -0.14539,0.41495 -0.21891,0.59466 -0.0735,0.18134 -0.13886,0.35941 -0.23198,0.58976 -0.0523,0.12742 -0.11272,0.26955 -0.0441,0.32673 0.0196,0.018 0.0523,0.0278 0.085,0.0278 0.15029,0.007 0.32673,-0.15846 0.46396,-0.29079 0.22708,-0.21564 0.35124,-0.34144 0.48194,-0.49827 0.10129,-0.12253 0.20584,-0.26302 0.32837,-0.42802 0.12252,-0.16827 0.26302,-0.36105 0.38881,-0.52768 0.0915,-0.12253 0.17644,-0.22871 0.28099,-0.36268 0.0572,-0.0735 0.12089,-0.1552 0.19768,-0.13723 0.0376,0.01 0.0784,0.0441 0.0996,0.0833 0.0523,0.098 -0.0229,0.23035 -0.08,0.33981 -0.0849,0.16009 -0.12906,0.26955 -0.18134,0.39698 -0.0653,0.16173 -0.14376,0.35124 -0.20584,0.52604 -0.049,0.13886 -0.0849,0.26792 -0.12252,0.44926 -0.0196,0.098 -0.0392,0.21238 -0.018,0.25812 0.0343,0.0784 0.18787,-0.0457 0.32183,-0.165 0.29733,-0.26955 0.50154,-0.52277 0.71228,-0.76783 0.0719,-0.0849 0.1454,-0.16826 0.22382,-0.24995 l 0.17317,0.14213 c -0.0653,0.08 -0.13233,0.15847 -0.19767,0.24015 -0.20912,0.25649 -0.41333,0.51297 -0.64857,0.76129 -0.17971,0.18788 -0.37575,0.37248 -0.65184,0.40352 -0.12743,0.0147 -0.27282,-0.005 -0.34634,-0.0866 -0.0621,-0.0703 -0.0719,-0.18788 -0.0703,-0.29569 0.002,-0.13723 0.0245,-0.2614 0.0474,-0.38555 -0.22382,0.19113 -0.44926,0.38064 -0.65021,0.57668 -0.20584,0.20258 -0.38881,0.41005 -0.73188,0.50481 -0.17644,0.049 -0.39698,0.067 -0.45743,-0.0474 -0.0261,-0.049 -0.0212,-0.12416 -0.0164,-0.19931 -0.12579,0.12253 -0.24996,0.24669 -0.40025,0.36758 -0.17644,0.1405 -0.38882,0.27773 -0.59303,0.24179 -0.13069,-0.0212 -0.25812,-0.116 -0.34307,-0.23036 -0.0996,-0.13559 -0.13722,-0.29896 -0.14867,-0.46722 -0.0147,-0.19768 0.007,-0.40025 0.0523,-0.57506 0.0572,-0.22218 0.15193,-0.39698 0.37085,-0.6355 0.11763,-0.12906 0.27282,-0.27609 0.22381,-0.35614 -0.018,-0.0311 -0.067,-0.0523 -0.11272,-0.0506 -0.10946,0.003 -0.20258,0.13886 -0.28753,0.26302 -0.19767,0.28916 -0.35614,0.51297 -0.49827,0.73679 -0.22381,0.3496 -0.40679,0.69595 -0.74169,1.1158 z"
         style="fill:#000000;fill-opacity:1;stroke-width:0px"
         id="path37" /><path
         d="m 175.67051,242.72502 c -0.0261,0.0327 -0.0833,0.0556 -0.14212,0.0719 -0.14377,0.0408 -0.29243,0.049 -0.43293,0.0621 -0.0425,0.20911 -0.0752,0.41495 -0.098,0.59792 -0.0278,0.24015 -0.0408,0.43946 -0.0948,0.8005 -0.0245,0.17481 -0.0605,0.38882 -0.005,0.39045 0.0408,0.002 0.13069,-0.10782 0.20747,-0.19441 0.10946,-0.12252 0.19768,-0.19604 0.28753,-0.27935 0.14867,-0.13723 0.30713,-0.30223 0.4607,-0.46397 l 0.23688,0.0997 c -0.19114,0.1895 -0.37738,0.38391 -0.54401,0.60772 -0.18461,0.24832 -0.34308,0.53421 -0.61753,0.65838 -0.14213,0.0637 -0.3153,0.0833 -0.46723,0.0245 -0.0474,-0.018 -0.0948,-0.0457 -0.12579,-0.08 -0.10129,-0.11109 -0.0539,-0.30223 -0.0261,-0.47703 0.0147,-0.0866 0.0245,-0.1699 0.0311,-0.24996 -0.11926,0.1503 -0.23852,0.30223 -0.39045,0.40352 -0.1405,0.0931 -0.3104,0.14377 -0.47867,0.19441 -0.0441,0.10946 -0.10782,0.20911 -0.18297,0.2908 -0.10945,0.11925 -0.24505,0.19767 -0.42149,0.24668 -0.17644,0.0474 -0.39208,0.0637 -0.58322,0.067 -0.1454,0.003 -0.27609,-0.003 -0.39372,-0.0556 -0.0931,-0.0441 -0.17644,-0.11762 -0.19277,-0.20747 -0.0212,-0.12417 0.0849,-0.281 0.20258,-0.37575 0.11272,-0.0931 0.23688,-0.12906 0.36104,-0.165 -0.0523,0.0948 -0.10455,0.18787 -0.0899,0.28426 0.0114,0.0833 0.0719,0.16663 0.14866,0.20911 0.1503,0.0817 0.36104,0.008 0.4803,-0.12253 0.0866,-0.0931 0.12416,-0.21564 0.11762,-0.3349 -0.008,-0.18134 -0.11762,-0.35777 -0.25812,-0.4705 -0.10128,-0.0833 -0.21891,-0.13069 -0.33327,-0.1846 -0.0278,-0.0114 -0.0539,-0.0245 -0.08,-0.0392 -0.0164,0.0196 -0.0327,0.0408 -0.049,0.0605 l -0.17317,-0.14213 c 0.0261,-0.0278 0.0523,-0.0539 0.08,-0.0817 -0.0409,-0.0964 -0.0556,-0.21727 -0.0539,-0.32019 0.002,-0.15193 0.0343,-0.26793 0.10782,-0.37902 0.10129,-0.15193 0.27609,-0.29406 0.45906,-0.38064 0.1454,-0.0702 0.29407,-0.10456 0.45907,-0.12253 0.17317,-0.0196 0.36431,-0.0196 0.5048,0.0833 0.0784,0.0572 0.14213,0.14703 0.15193,0.24015 0.008,0.0915 -0.0343,0.18787 -0.0915,0.25975 -0.0703,0.0899 -0.16174,0.1454 -0.29243,0.17317 -0.0311,0.007 -0.0653,0.0131 -0.0817,0.005 -0.0408,-0.018 0.0228,-0.11436 0.0408,-0.19604 0.0164,-0.0751 -0.008,-0.13886 -0.0506,-0.17807 -0.0735,-0.067 -0.20421,-0.0572 -0.31857,-0.0229 -0.11436,0.0359 -0.21238,0.0964 -0.25976,0.19114 -0.0425,0.0866 -0.0441,0.19931 -0.01,0.28753 0.0637,0.16336 0.24995,0.24178 0.41658,0.32674 0.11599,0.0604 0.22381,0.12252 0.3006,0.21401 0.0539,0.0637 0.0931,0.14376 0.11925,0.22708 0.0196,0.0588 0.0311,0.12089 0.0376,0.1846 0.14702,-0.0637 0.29569,-0.12743 0.42148,-0.21891 0.15194,-0.11272 0.27119,-0.26629 0.39045,-0.41986 v -0.12252 c -0.002,-0.24505 0,-0.50154 0.0506,-0.74986 -0.0474,0.005 -0.0997,0.0114 -0.15684,0.0212 -0.10292,0.0164 -0.22545,0.0457 -0.28262,0.01 -0.0359,-0.0228 -0.0458,-0.0702 -0.0311,-0.10782 0.0441,-0.11926 0.33327,-0.12089 0.52441,-0.1307 0.0523,-0.16663 0.12252,-0.32673 0.20257,-0.47703 0.12253,-0.23198 0.26466,-0.4411 0.54402,-0.58812 0.14866,-0.0801 0.33817,-0.14214 0.42802,-0.0408 0.0392,0.0458 0.0604,0.12417 0.0506,0.18624 -0.0229,0.13233 -0.17971,0.19441 -0.28753,0.28753 -0.15193,0.13069 -0.20585,0.3202 -0.25159,0.51298 -0.003,0.0131 -0.007,0.0245 -0.01,0.0376 0.0425,-0.008 0.0849,-0.0164 0.13069,-0.0261 0.15357,-0.0327 0.33491,-0.0784 0.39863,-0.0196 0.0278,0.0261 0.0327,0.0735 0.005,0.10782 z"
         style="fill:#000000;fill-opacity:1;stroke-width:0px"
         id="path39" /><path
         d="m 176.752,243.2282 c 0.0261,0.01 0.17481,-0.24342 0.29244,-0.40842 0.0784,-0.10782 0.14376,-0.17807 0.22708,-0.24016 0.0784,-0.0588 0.17317,-0.11108 0.27609,-0.14539 0.0915,-0.0311 0.1895,-0.0474 0.28262,-0.0375 0.0556,0.005 0.10946,0.0212 0.16011,0.0473 0.0621,0.0311 0.11925,0.0801 0.14702,0.13233 0.0506,0.0997 -0.003,0.21565 -0.0604,0.36595 -0.0621,0.16663 -0.1258,0.3741 -0.10619,0.39371 q 0,0 0.003,0 l 0.24342,0.1601 c -0.15683,0.21238 -0.24668,0.35451 -0.35124,0.52278 -0.098,0.1601 -0.20911,0.3447 -0.2859,0.53257 -0.049,0.116 -0.0849,0.23362 -0.1944,0.30714 -0.0621,0.0441 -0.1503,0.0719 -0.21074,0.0506 -0.0833,-0.0294 -0.11436,-0.1552 -0.12417,-0.26792 -0.0147,-0.18624 0.0311,-0.33491 0.0882,-0.4803 0.0784,-0.20095 0.18133,-0.39372 0.28589,-0.62407 0.0637,-0.13723 0.12742,-0.28752 0.13232,-0.46069 0,-0.085 -0.0114,-0.17644 -0.0392,-0.21728 -0.085,-0.1307 -0.3104,0.21401 -0.47541,0.45742 -0.1846,0.2761 -0.29406,0.42313 -0.42148,0.61263 -0.13887,0.20585 -0.29733,0.45907 -0.44436,0.67471 -0.0605,0.0899 -0.11926,0.17317 -0.19931,0.26956 -0.0425,0.049 -0.0899,0.10292 -0.14376,0.0996 -0.0343,-0.002 -0.0735,-0.0278 -0.0997,-0.0572 -0.12253,-0.13887 0.007,-0.34308 0.10619,-0.52768 0.11272,-0.21075 0.18787,-0.39699 0.24995,-0.57996 l -0.23688,-0.0997 c 0.13069,-0.13722 0.25812,-0.27282 0.38555,-0.40678 0.031,-0.11925 0.0621,-0.24342 0.0866,-0.36921 0.0261,-0.13723 0.049,-0.27772 0.1258,-0.38065 0.0359,-0.0474 0.0833,-0.0866 0.14703,-0.10945 0.11435,-0.0441 0.28099,-0.0376 0.33327,0.0294 0.0457,0.0588 0.003,0.16663 -0.0441,0.28916 -0.0752,0.20584 -0.16173,0.45742 -0.1356,0.46559 z"
         style="fill:#000000;fill-opacity:1;stroke-width:0px"
         id="path41" /><path
         d="m 180.55031,244.09731 c 0.10128,0.0735 0.29732,-0.18133 0.45252,-0.38065 0.1797,-0.23034 0.3055,-0.38391 0.43129,-0.53911 0.12743,-0.165 0.25485,-0.33 0.27772,-0.55544 0.008,-0.0686 0.005,-0.14214 -0.018,-0.18788 -0.0768,-0.14539 -0.38065,0.007 -0.60609,0.18788 -0.34635,0.27935 -0.50481,0.62569 -0.58323,0.8593 -0.0359,0.10783 -0.0572,0.19278 -0.0441,0.33164 0.008,0.10619 0.0359,0.24505 0.0899,0.28426 z m -2.57631,-0.75966 c 0.0343,0 0.16827,-0.23034 0.27282,-0.39698 0.11436,-0.18461 0.18951,-0.29569 0.30387,-0.40842 0.0898,-0.0866 0.20093,-0.1748 0.3349,-0.20748 0.13723,-0.0327 0.29569,-0.008 0.39208,0.0702 0.18297,0.1454 0.1454,0.47704 0.0702,0.74659 -0.0751,0.26139 -0.18461,0.4656 -0.27119,0.66491 -0.0605,0.14213 -0.10946,0.28099 -0.1846,0.47866 -0.0327,0.0817 -0.0686,0.17317 -0.0539,0.20258 0.0245,0.049 0.18461,-0.0653 0.30223,-0.16173 0.165,-0.1356 0.24832,-0.23199 0.36105,-0.31857 0.0948,-0.0735 0.20911,-0.1405 0.33653,-0.19767 0.0164,-0.19441 0.0784,-0.36595 0.16011,-0.52768 0.12578,-0.24342 0.29895,-0.46724 0.48193,-0.65511 0.15683,-0.16173 0.3202,-0.29896 0.51788,-0.41985 0.27118,-0.16664 0.60445,-0.30223 0.89525,-0.20258 0.13886,0.049 0.26792,0.1503 0.34797,0.27936 0.12253,0.19931 0.13233,0.46233 0.0653,0.67634 -0.0653,0.21402 -0.20748,0.37738 -0.35778,0.57833 -0.0915,0.12089 -0.18623,0.25485 -0.17153,0.38718 0.005,0.0409 0.0196,0.0817 0.0457,0.0964 0.0621,0.0327 0.18624,-0.0817 0.28589,-0.1797 0.19114,-0.18951 0.28916,-0.31367 0.40352,-0.4509 0.0915,-0.10782 0.19441,-0.22381 0.29406,-0.34307 l 0.1258,0.10619 c -0.1356,0.16827 -0.26792,0.34634 -0.39045,0.52931 -0.12416,0.18461 -0.23688,0.37248 -0.40189,0.52441 -0.16336,0.15357 -0.37901,0.26956 -0.61426,0.24178 -0.0948,-0.0114 -0.19277,-0.0457 -0.24178,-0.10945 -0.0621,-0.08 -0.0441,-0.20911 -0.0245,-0.33817 -0.0637,0.08 -0.12579,0.1601 -0.20094,0.22545 -0.0768,0.0653 -0.16664,0.11435 -0.26629,0.16826 -0.1748,0.0931 -0.37738,0.19931 -0.55382,0.17644 -0.10782,-0.0147 -0.20421,-0.0784 -0.27282,-0.17317 -0.0572,-0.0784 -0.0931,-0.18134 -0.11272,-0.29079 -0.10783,0.0719 -0.21075,0.1503 -0.30224,0.24341 -0.0996,0.10293 -0.18624,0.22545 -0.29079,0.32184 -0.11272,0.10456 -0.24669,0.1797 -0.41169,0.21564 -0.14539,0.0311 -0.31203,0.0311 -0.42802,-0.0376 -0.0702,-0.0425 -0.12089,-0.11109 -0.14213,-0.18951 -0.0408,-0.14703 0.0278,-0.32673 0.0849,-0.48193 0.0833,-0.22055 0.1454,-0.39208 0.25649,-0.61753 0.0506,-0.0996 0.11109,-0.21075 0.15356,-0.33654 0.0392,-0.12089 0.0621,-0.25485 0.0441,-0.30713 -0.0441,-0.12743 -0.33327,0.22708 -0.52768,0.48357 -0.0245,0.0327 -0.049,0.0653 -0.0719,0.0947 z"
         style="fill:#000000;fill-opacity:1;stroke-width:0px"
         id="path43" /><path
         d="m 183.66736,243.25924 c -0.10129,0.0245 -0.21238,0.0572 -0.31857,0.11272 -0.12906,0.0686 -0.25322,0.16827 -0.28916,0.3104 -0.0261,0.10292 -0.007,0.22871 0.0589,0.30059 0.0996,0.11109 0.30549,0.0931 0.47049,0.018 0.13397,-0.0605 0.24015,-0.1601 0.26303,-0.27772 0.0245,-0.12417 -0.0441,-0.26793 -0.1258,-0.38555 -0.0212,-0.0311 -0.0441,-0.0588 -0.0588,-0.0784 z m -14.44987,8.67318 c -1.42946,0.53911 -2.89977,0.95734 -4.41909,1.21219 -0.89689,0.15029 -1.81011,0.24178 -2.69883,0.16827 -0.64857,-0.0556 -1.28407,-0.19931 -1.88199,-0.43619 -0.42313,-0.16827 -0.82665,-0.38392 -1.0962,-0.74986 -0.23362,-0.31367 -0.36594,-0.74006 -0.40189,-1.13377 -0.0441,-0.46887 0.0458,-0.89526 0.27446,-1.2808 0.43129,-0.72699 1.35922,-1.31348 2.27244,-1.67615 1.15665,-0.4607 2.29042,-0.56199 3.42909,-0.6061 1.54056,-0.0605 3.09091,-0.0131 4.6282,0.1699 1.14848,0.1356 2.28878,0.34635 3.39805,0.65837 0.44762,-0.19767 0.90016,-0.38227 1.36249,-0.54074 0.8348,-0.28589 1.70392,-0.48684 2.57793,-0.58159 0.59467,-0.0637 1.19259,-0.08 1.80032,-0.005 0.6453,0.0784 1.30041,0.25975 1.79867,0.65347 0.3104,0.24504 0.55872,0.57342 0.74169,0.92792 0.13887,0.26956 0.24179,0.55546 0.30223,0.84952 0.0294,0.14049 0.049,0.28262 0.0686,0.42475 0.0131,0.0866 -0.0343,0.15847 -0.11763,0.1797 -0.0833,0.0212 -0.1601,-0.0196 -0.1895,-0.10128 -0.0114,-0.0392 -0.0229,-0.0784 -0.0359,-0.11763 -0.0523,-0.18134 -0.11109,-0.35941 -0.19114,-0.52931 -0.12579,-0.26302 -0.3055,-0.50317 -0.51624,-0.71228 -0.35124,-0.34797 -0.78416,-0.6159 -1.24813,-0.77273 -0.59629,-0.20257 -1.24323,-0.22545 -1.88036,-0.18461 -0.86095,0.0539 -1.70066,0.22382 -2.50606,0.49337 -0.30877,0.10293 -0.61099,0.21892 -0.91159,0.34634 0.20747,0.0702 0.41495,0.14214 0.6208,0.21565 0.11109,-0.049 0.22055,-0.0964 0.33327,-0.14049 0.67634,-0.26466 1.40006,-0.4215 2.13194,-0.4705 0.85768,-0.0588 1.7268,0.031 2.5175,0.43129 0.60609,0.30712 1.16645,0.79886 1.36249,1.40823 0.0474,0.15193 0.0735,0.31039 0.0833,0.47539 0.67797,0.0523 1.36249,0.0572 2.04863,0.01 0.75639,-0.0523 1.51605,-0.165 2.20383,-0.4607 0.58976,-0.25322 1.12724,-0.64203 1.5863,-1.10436 0.31693,-0.31694 0.59793,-0.67145 0.79723,-1.06516 0.21892,-0.43292 0.34307,-0.91649 0.37248,-1.40986 0.0425,-0.70575 -0.10456,-1.43601 -0.4803,-2.02903 -0.24832,-0.39372 -0.59629,-0.72698 -0.98021,-0.9655 -0.3104,-0.19441 -0.64367,-0.3251 -1.03575,-0.38065 -0.22544,-0.0327 -0.46886,-0.0392 -0.69104,-0.0228 -0.12743,0.01 -0.24832,0.0261 -0.36431,0.0457 0.0556,0.12416 0.10129,0.25159 0.10946,0.38555 0.018,0.25322 -0.0898,0.53421 -0.281,0.71882 -0.22054,0.21401 -0.55381,0.29733 -0.86585,0.24831 -0.24831,-0.0392 -0.48356,-0.16336 -0.57342,-0.37084 -0.0817,-0.18624 -0.0441,-0.44109 0.0703,-0.61753 0.12252,-0.1895 0.3349,-0.28752 0.54401,-0.37411 0.0653,-0.0278 0.13069,-0.0539 0.19604,-0.0784 -0.0147,-0.0212 -0.0294,-0.0425 -0.0425,-0.0653 -0.0539,-0.0866 -0.0964,-0.18623 -0.116,-0.28916 -0.08,0.10946 -0.16663,0.20585 -0.25321,0.30714 -0.0458,0.0539 -0.0931,0.10945 -0.13887,0.165 l -0.12579,-0.10619 c 0.0327,-0.0392 0.0653,-0.0784 0.098,-0.11926 0.1552,-0.1895 0.2957,-0.38065 0.43619,-0.57179 0.0458,-0.13723 0.13887,-0.26302 0.24995,-0.3594 0.15357,-0.13234 0.34144,-0.20748 0.55382,-0.23525 0.20911,-0.0294 0.44273,-0.0131 0.57833,0.12579 0.0866,0.0882 0.13395,0.22708 0.12252,0.35941 -0.0114,0.12579 -0.0768,0.24342 -0.17971,0.31366 -0.10619,0.0735 -0.25321,0.0915 -0.37574,0.0539 -0.0523,-0.0164 -0.0997,-0.0441 -0.14213,-0.0735 -0.0245,-0.018 -0.0327,-0.0457 -0.0245,-0.0735 0.01,-0.0294 0.0343,-0.0457 0.0654,-0.0457 0.0735,0.003 0.14702,0.005 0.1846,-0.0327 0.0425,-0.0441 0.0408,-0.1356 0.007,-0.20747 -0.0359,-0.0735 -0.10946,-0.12417 -0.17644,-0.11926 -0.0637,0.007 -0.12089,0.0604 -0.15683,0.12089 -0.0605,0.10456 -0.0556,0.22708 -0.0294,0.33981 0.0245,0.11108 0.0702,0.214 0.11762,0.30876 0.0719,-0.0164 0.14703,-0.0327 0.22544,-0.0457 0.39209,-0.0637 0.80051,-0.0605 1.20239,-0.003 0.39698,0.0572 0.78907,0.16827 1.13377,0.36104 0.44273,0.24832 0.80867,0.63223 1.09947,1.06353 0.36594,0.54401 0.61426,1.16317 0.6845,1.79867 0.0686,0.64203 -0.0425,1.29877 -0.25158,1.92774 -0.26956,0.81521 -0.70248,1.58303 -1.31837,2.15318 -0.63224,0.5865 -1.45725,0.96388 -2.30676,1.18605 -0.81847,0.21401 -1.65655,0.28263 -2.48972,0.25486 -0.45743,-0.0164 -0.91159,-0.0605 -1.34778,-0.12089 -0.08,0.51133 -0.23689,1.04391 -0.4411,1.50951 -0.17806,0.40515 -0.39044,0.75802 -0.65183,1.08966 -0.42966,0.54075 -0.99164,1.01778 -1.61734,1.37883 -0.74986,0.43292 -1.59284,0.69921 -2.48482,0.81193 -0.73516,0.0931 -1.50462,0.0817 -2.18749,-0.12252 -0.57179,-0.17154 -1.08313,-0.4754 -1.49808,-0.90179 -0.36431,-0.37248 -0.65348,-0.83971 -0.76947,-1.35269 -0.12089,-0.5342 -0.0556,-1.1207 0.16174,-1.62877 0.22218,-0.51951 0.60119,-0.95897 1.06515,-1.28897 0.1503,-0.10619 0.30877,-0.20094 0.47541,-0.28099 0.37901,-0.18461 0.79233,-0.29243 1.20891,-0.28263 0.56689,0.0147 1.14358,0.24342 1.54546,0.6551 0.36431,0.37085 0.58486,0.89036 0.57669,1.40333 -0.007,0.40352 -0.1552,0.80377 -0.40352,1.1256 -0.26302,0.34144 -0.63877,0.5963 -1.04228,0.72536 -0.0801,0.0261 -0.16174,0.0474 -0.24342,0.0686 0.165,-0.25812 0.33,-0.51787 0.44272,-0.80376 0.16664,-0.4264 0.21729,-0.91486 0.0605,-1.36412 -0.12743,-0.35942 -0.38718,-0.69269 -0.71555,-0.82828 -0.42149,-0.17317 -0.95734,-0.0196 -1.37882,0.24669 -0.41169,0.26138 -0.71718,0.63059 -0.86258,1.06352 -0.17317,0.50971 -0.12743,1.10763 0.10619,1.60427 0.23525,0.49827 0.66163,0.89525 1.15174,1.1305 0.495,0.23689 1.05535,0.30713 1.6059,0.27936 0.66491,-0.0343 1.31675,-0.21401 1.90323,-0.52114 0.57996,-0.30223 1.0962,-0.73026 1.53239,-1.22362 0.40025,-0.44927 0.73189,-0.95407 0.99491,-1.48829 0.17643,-0.3594 0.32183,-0.73188 0.40189,-1.1354 0.002,-0.0147 0.005,-0.0294 0.008,-0.0441 -0.27936,-0.0523 -0.55872,-0.10945 -0.83645,-0.16663 -1.00307,-0.20747 -1.99962,-0.42966 -2.96839,-0.74495 -0.66164,-0.21565 -1.31021,-0.47377 -1.96204,-0.72209 -0.4411,0.22381 -0.87075,0.4705 -1.30041,0.71392 -0.26955,0.15519 -0.53911,0.30713 -0.81194,0.45252 -0.8446,0.44763 -1.72189,0.82991 -2.61388,1.16645 z m -4.43379,0.72045 c 1.19258,-0.1895 2.36229,-0.51297 3.50587,-0.90832 1.38372,-0.47703 2.72824,-1.05862 4.00414,-1.77907 0.3496,-0.19768 0.69268,-0.40516 1.02431,-0.59629 -0.19441,-0.0686 -0.41495,-0.1454 -0.63877,-0.21565 -0.0294,-0.008 -0.0572,-0.018 -0.0866,-0.0261 -0.19278,0.0931 -0.38718,0.18624 -0.58159,0.27936 -0.91649,0.4411 -1.83462,0.86585 -2.76418,1.27264 -1.12724,0.49337 -2.27244,0.95897 -3.44052,1.31837 -0.92956,0.28426 -1.87383,0.50154 -2.87854,0.54402 -0.4656,0.0212 -0.94589,0.003 -1.38699,-0.10292 -0.26302,-0.0637 -0.51297,-0.1601 -0.74005,-0.29897 -0.19441,-0.11926 -0.37085,-0.26792 -0.54729,-0.41822 -0.067,-0.049 -0.098,-0.12579 -0.0849,-0.20911 0.0114,-0.0817 0.0637,-0.1454 0.1405,-0.1748 0.0784,-0.0278 0.1601,-0.0131 0.22218,0.0408 0.15846,0.116 0.3153,0.23199 0.48357,0.32511 0.57342,0.31203 1.27917,0.3398 1.95714,0.29732 0.98511,-0.0604 1.91467,-0.26792 2.82136,-0.56361 1.07822,-0.35288 2.12541,-0.82828 3.15299,-1.32654 0.74169,-0.36105 1.47358,-0.73352 2.21037,-1.10111 0.11762,-0.0588 0.23525,-0.11762 0.3545,-0.17643 -0.97693,-0.22871 -1.97511,-0.37738 -2.97655,-0.47703 -1.23996,-0.12416 -2.48319,-0.17644 -3.71825,-0.12253 -1.05372,0.0474 -2.1009,0.1699 -3.13339,0.52768 -0.72535,0.25159 -1.44417,0.61916 -1.82808,1.28407 -0.22382,0.38881 -0.33327,0.87891 -0.20095,1.28896 0.1013,0.31531 0.34471,0.58323 0.61917,0.78744 0.36268,0.27282 0.78416,0.43456 1.21709,0.53421 0.0409,0.0114 0.0833,0.0212 0.12579,0.0294 0.58159,0.12089 1.18115,0.14376 1.77417,0.11599 0.46723,-0.0229 0.93283,-0.0752 1.39353,-0.14867 z m 14.9563,-2.26754 c -0.0196,-0.12906 -0.0539,-0.26465 -0.10946,-0.39045 -0.22054,-0.51461 -0.75802,-0.88218 -1.31674,-1.08313 -0.73352,-0.26465 -1.50461,-0.24014 -2.24304,-0.0899 -0.31693,0.0653 -0.62896,0.15357 -0.91975,0.25649 0.55708,0.20421 1.13213,0.41659 1.71535,0.60446 0.94264,0.3055 1.9065,0.55055 2.87364,0.70248 z"
         style="fill:#000000;fill-opacity:1;stroke-width:0px"
         id="path45" /></g></g></svg>
