<?xml version="1.0" encoding="UTF-8" standalone="no"?>
<!-- Created with Inkscape (http://www.inkscape.org/) -->

<svg
   width="480"
   height="800"
   viewBox="0 0 127 211.66667"
   version="1.1"
   id="svg1"
   inkscape:version="1.3 (0e150ed, 2023-07-21)"
   sodipodi:docname="Wait.svg"
   xml:space="preserve"
   inkscape:export-filename="Wait.png"
   inkscape:export-xdpi="96"
   inkscape:export-ydpi="96"
   xmlns:inkscape="http://www.inkscape.org/namespaces/inkscape"
   xmlns:sodipodi="http://sodipodi.sourceforge.net/DTD/sodipodi-0.dtd"
   xmlns="http://www.w3.org/2000/svg"
   xmlns:svg="http://www.w3.org/2000/svg"><sodipodi:namedview
     id="namedview1"
     pagecolor="#ffffff"
     bordercolor="#666666"
     borderopacity="1.0"
     inkscape:showpageshadow="2"
     inkscape:pageopacity="0.0"
     inkscape:pagecheckerboard="0"
     inkscape:deskcolor="#d1d1d1"
     inkscape:document-units="mm"
     inkscape:zoom="1.37875"
     inkscape:cx="240.07253"
     inkscape:cy="400"
     inkscape:window-width="2048"
     inkscape:window-height="1254"
     inkscape:window-x="5543"
     inkscape:window-y="25"
     inkscape:window-maximized="0"
     inkscape:current-layer="layer1"
     showgrid="false" /><defs
     id="defs1"><rect
       x="64.116576"
       y="542.0765"
       width="271.76685"
       height="163.93443"
       id="rect4" /><rect
       x="0"
       y="0"
       width="420.96005"
       height="608.54753"
       id="rect1" /><rect
       x="0"
       y="0"
       width="480"
       height="153.00546"
       id="rect1-6" /><rect
       x="0"
       y="0"
       width="480"
       height="153.00546"
       id="rect1-3" /></defs><g
     inkscape:label="Layer 1"
     inkscape:groupmode="layer"
     id="layer1"
     transform="translate(0,-85.333325)"><text
       xml:space="preserve"
       transform="matrix(0.30246346,0,0,0.30246346,2.5484684,81.96169)"
       id="text1"
       style="font-style:normal;font-variant:normal;font-weight:normal;font-stretch:normal;font-size:86.6667px;line-height:1.25;font-family:UnifrakturCook;-inkscape-font-specification:'UnifrakturCook, Normal';font-variant-ligatures:normal;font-variant-caps:normal;font-variant-numeric:normal;font-variant-east-asian:normal;white-space:pre;shape-inside:url(#rect1);display:inline;fill:#000000;fill-opacity:1;stroke:none"><tspan
         x="0"
         y="79.067197"
         id="tspan3">Please Wait&#10;</tspan><tspan
         x="0"
         y="187.40057"
         id="tspan5">We are on&#10;</tspan><tspan
         x="0"
         y="295.73394"
         id="tspan6">the way...</tspan></text><path
       style="fill:#000000;stroke-width:1.35464"
       d="m 114.62137,262.29463 c -0.12615,-0.0513 -5.80349,-2.19574 -12.61628,-4.76536 -6.812792,-2.56963 -12.477648,-4.71994 -12.58857,-4.77846 -0.190907,-0.10082 -0.200092,-0.80724 -0.172039,-13.23425 0.01629,-7.22033 -0.0011,-13.12786 -0.03861,-13.12785 -0.03754,0 -0.166444,0.10852 -0.286464,0.24112 -0.728645,0.80515 -2.003458,0.83674 -2.875301,0.0712 -0.513669,-0.45102 -0.726917,-0.93875 -0.726917,-1.66256 0,-1.10155 1.003843,-2.09063 2.121829,-2.09063 0.512618,0 1.387438,0.38786 1.583718,0.70215 0.074,0.11854 0.160811,0.21541 0.192948,0.21541 0.03213,0 0.04518,-7.4589 0.02899,-16.57533 l -0.02944,-16.57532 0.258828,-0.11133 c 0.142356,-0.0612 2.374924,-0.90804 4.961263,-1.88178 2.586338,-0.97376 8.005605,-3.01861 12.042815,-4.54413 4.03721,-1.5255 7.52103,-2.84182 7.74181,-2.92514 0.33536,-0.12652 -2.80208,-0.15282 -19.062378,-0.15957 l -19.463807,-0.009 -0.0051,40.65884 -0.0051,40.65884 19.583637,-0.007 c 10.771008,-0.004 19.480408,-0.0494 19.354238,-0.10058 z m -60.739527,-2.36337 c 0.78044,-0.21596 1.248972,-0.5038 1.784017,-1.09603 0.468478,-0.51856 0.789814,-1.18971 0.900461,-1.88073 0.0638,-0.39863 -0.362923,-4.74911 -1.755541,-17.89704 -0.237199,-2.23948 -0.40615,-2.8177 -1.031361,-3.52977 -0.200867,-0.22877 -2.057669,-1.50142 -4.146699,-2.84209 -2.080616,-1.33528 -3.75977,-2.48546 -3.731443,-2.55593 0.02831,-0.0704 1.224695,-3.09584 2.658604,-6.72302 1.433908,-3.62718 2.618926,-6.60879 2.633366,-6.6258 0.01449,-0.0171 2.08544,1.24506 4.602186,2.80463 2.516758,1.55957 4.75656,2.90024 4.977354,2.97926 0.557247,0.19946 1.579125,0.18798 2.203469,-0.0248 0.394162,-0.13424 1.727189,-1.18804 5.382354,-4.25465 2.672127,-2.24187 5.056421,-4.26473 5.298426,-4.49524 1.332014,-1.26873 1.418392,-3.2471 0.20225,-4.6322 -0.593391,-0.67584 -1.387832,-1.00592 -2.413856,-1.00295 -1.1636,0.002 -1.488295,0.16934 -3.276457,1.67451 -0.81921,0.68957 -2.641522,2.22303 -4.049583,3.40771 l -2.560122,2.15396 -0.364563,-0.21763 c -1.937918,-1.15678 -10.779567,-6.66325 -11.088413,-6.90572 -0.712843,-0.55962 -1.741765,-1.00297 -2.639517,-1.13733 -0.773165,-0.11573 -17.953943,-0.93465 -19.506681,-0.9298 -0.830778,0.002 -1.896588,0.51558 -2.405069,1.1576 -0.25191,0.31806 -0.956164,2.01522 -2.355082,5.67549 -1.097643,2.87199 -2.069264,5.36401 -2.159159,5.53784 -0.08994,0.17383 -0.280384,0.67479 -0.423299,1.11324 -0.633787,1.94427 -0.06042,3.61033 1.51287,4.39655 1.312112,0.65567 2.861788,0.4059 3.748621,-0.60414 0.58472,-0.66595 0.964238,-1.52206 2.746371,-6.1952 0.916568,-2.4034 1.676906,-4.38213 1.689653,-4.39718 0.03549,-0.0419 9.6161,0.42309 9.66186,0.46887 0.03346,0.0335 -2.377311,6.1936 -5.258443,13.43642 -0.762897,1.91782 -0.912694,2.7295 -0.762464,4.13165 0.0508,0.47419 0.195802,1.16916 0.322204,1.5444 0.126388,0.37521 0.229585,0.74834 0.229287,0.82918 -2.84e-4,0.0809 -0.587484,1.56632 -1.304878,3.30105 l -1.304363,3.15408 -8.256875,1.04176 c -4.541279,0.57298 -8.483046,1.10515 -8.759462,1.18263 -1.036333,0.29041 -2.104445,1.36784 -2.39583,2.41674 -0.169615,0.61053 -0.136629,1.73151 0.06868,2.33408 0.237428,0.69682 1.074777,1.62001 1.805014,1.99005 0.328244,0.16632 0.854728,0.31642 1.216622,0.34681 0.418248,0.0351 3.954337,-0.36348 10.266088,-1.15729 10.785189,-1.35647 10.3554,-1.26728 11.32671,-2.35056 0.424519,-0.47343 0.74618,-1.16528 2.319183,-4.98802 1.139976,-2.77043 1.876336,-4.41914 1.959457,-4.38724 0.143985,0.0552 5.913144,3.72699 6.040062,3.84415 0.04226,0.039 0.471147,3.86445 0.953022,8.50094 0.481874,4.63649 0.929044,8.63643 0.993714,8.88873 0.474872,1.85285 2.568033,3.03797 4.447241,2.518 z m 58.617697,-6.7659 v -2.69105 h -0.40142 -0.40144 v 2.07788 c 0,1.92307 -0.0149,2.07381 -0.20071,2.02367 -0.11035,-0.0298 -2.88453,-1.02337 -6.16477,-2.20792 -3.28023,-1.18456 -6.86727,-2.47715 -7.971194,-2.87243 l -2.007137,-0.71868 -0.02893,-26.73504 c -0.0159,-14.70428 -0.0073,-26.73503 0.0192,-26.73503 0.02647,0 3.696807,-1.31612 8.156321,-2.92469 4.45951,-1.60858 8.12822,-2.92468 8.1527,-2.92468 0.0244,0 0.0445,0.92901 0.0445,2.06448 v 2.06448 h 0.40143 0.40143 v -2.69286 -2.69282 l -0.25806,0.11438 c -0.14193,0.0628 -4.18058,1.52687 -8.97477,3.25335 l -8.716701,3.13907 v 27.33765 27.33766 l 7.971201,2.87121 c 4.38416,1.57917 8.42279,3.03576 8.97476,3.23687 l 1.00357,0.36563 z M 91.362964,228.76815 c 0.458726,-0.50171 0.615894,-0.99979 0.729973,-2.31334 0.205934,-2.37118 -0.120629,-4.32078 -0.829819,-4.95409 -0.237411,-0.212 -0.240589,-0.21175 -0.177666,0.0136 0.389856,1.3958 0.478641,4.87684 0.16674,6.53752 -0.09478,0.50465 -0.161626,0.93026 -0.148548,0.94577 0.01314,0.0155 0.129776,-0.0876 0.25932,-0.22938 z m -1.05811,-2.75957 c 0.218103,-0.52199 0.220451,-1.00599 0.0073,-1.516 -0.227956,-0.54557 -0.281789,-0.49847 -0.162159,0.14187 0.05931,0.31748 0.05739,0.77783 -0.0046,1.11826 -0.129545,0.71071 -0.07031,0.80578 0.159466,0.25587 z m -0.816292,-0.22202 c 0.09759,-0.36414 0.07437,-1.13322 -0.04241,-1.40498 -0.06618,-0.15401 -0.101224,0.0815 -0.106638,0.71682 -0.0083,0.97151 0.0281,1.13946 0.149036,0.68816 z m -36.170847,-19.9089 c 1.588865,-0.52877 2.726553,-1.48689 3.426796,-2.88596 1.17658,-2.35074 0.780373,-4.93599 -1.034625,-6.75099 -2.277487,-2.2775 -5.842283,-2.28528 -8.139413,-0.0177 -0.808183,0.79775 -1.224506,1.49417 -1.538148,2.57306 -0.271323,0.93333 -0.190721,2.7371 0.162991,3.64754 0.551735,1.4201 1.888988,2.75776 3.311733,3.31275 0.920308,0.35899 2.90656,0.42226 3.810666,0.12135 z"
       id="path1"
       sodipodi:nodetypes="cscssssssssscsssccccccccssssssssssscssscsscssscsscsssscsssssscscssscsssssssssccccsssscsssssccccccscccssccssscssssscscssssssssssssssss" /></g></svg>
